<svg xmlns="http://www.w3.org/2000/svg" xmlns:xlink="http://www.w3.org/1999/xlink" width="237.664" height="100.05" viewBox="0 0 237.664 100.05">
  <defs>
    <clipPath id="clip-path">
      <rect id="Rectangle_2" data-name="Rectangle 2" width="237.664" height="100.05" fill="none"/>
    </clipPath>
  </defs>
  <g id="Group_1" data-name="Group 1" clip-path="url(#clip-path)">
    <path id="Path_1" data-name="Path 1" d="M7.4,123.727a1.049,1.049,0,0,0,.068-.44.24.24,0,0,0-.082-.167.762.762,0,0,0-.205-.152.722.722,0,0,0-.218-.106.617.617,0,0,0-.206-.046,7.833,7.833,0,0,0-1.134.091c-.424.076-.875.152-1.368.258-.164.03-.328.061-.52.106s-.369.076-.547.121c-.177.03-.356.061-.52.091a2.317,2.317,0,0,1-.437.03H2.01c-.068-.015-.137-.015-.205-.03s-.137-.015-.205-.03-.15-.03-.246-.046a.424.424,0,0,0-.205.061.744.744,0,0,0-.191.182.722.722,0,0,0-.15.228.416.416,0,0,0-.055.243c.013.076.041.167.055.243a1.686,1.686,0,0,1,.068.243,1.647,1.647,0,0,1,.055.244,1.435,1.435,0,0,1,.014.243c-.055.425-.11.85-.178,1.306s-.123.911-.177,1.367c-.068.471-.123.926-.178,1.382s-.109.882-.15,1.307c-.068.532-.124,1.048-.178,1.579a16.622,16.622,0,0,0-.082,1.7.678.678,0,0,0,.11.38,1.454,1.454,0,0,0,.232.274.884.884,0,0,0,.246.152,1,1,0,0,0,.164.061.636.636,0,0,0,.369-.061.661.661,0,0,0,.164-.258,1.8,1.8,0,0,0,.028-.471v-.486a4.227,4.227,0,0,1-.014-.44c-.014-.167-.014-.334-.014-.516.014-.2.014-.38.014-.562s.014-.364.027-.547c.028-.167.041-.319.068-.456a1.065,1.065,0,0,1,.082-.349c.014-.046.082-.091.178-.137a3.123,3.123,0,0,1,.41-.167c.177-.046.369-.106.588-.152.205-.061.437-.106.67-.167s.492-.122.739-.167.478-.106.711-.152c.055-.015.164-.03.3-.061a3.967,3.967,0,0,0,.41-.091,2.757,2.757,0,0,0,.411-.121.549.549,0,0,0,.26-.152l.1-.106.137-.152a.819.819,0,0,0,.1-.137.309.309,0,0,0,.041-.137c-.028-.106-.068-.2-.1-.289a.47.47,0,0,0-.123-.2.7.7,0,0,0-.205-.122,1.579,1.579,0,0,0-.3-.03,2.03,2.03,0,0,0-.465.076c-.178.046-.369.106-.561.167-.206.076-.4.137-.6.213a5.027,5.027,0,0,1-.561.152c-.383.091-.725.167-1.039.228-.315.076-.615.167-.93.258a5.9,5.9,0,0,1,.014-.85c.027-.3.055-.607.1-.9.028-.3.082-.592.124-.866s.1-.516.15-.729a5.081,5.081,0,0,1,.137-.532.8.8,0,0,1,.1-.243.854.854,0,0,1,.3-.152,4.424,4.424,0,0,1,.6-.168c.233-.061.479-.106.752-.152s.519-.091.766-.122a6.269,6.269,0,0,1,.67-.076,2.875,2.875,0,0,1,.451-.03,2.016,2.016,0,0,1,.273.015c.11.015.233.03.356.046a2.788,2.788,0,0,0,.356.015.5.5,0,0,0,.246-.076,1.033,1.033,0,0,0,.369-.471m4.591,3.646c-.013.076-.027.182-.041.273-.014.106-.041.213-.055.3q-.021.159-.041.273a4.213,4.213,0,0,1-.287.8,8.279,8.279,0,0,1-.478.9,7.575,7.575,0,0,1-.6.9,8.655,8.655,0,0,1-.629.775,4.444,4.444,0,0,1-.574.547.789.789,0,0,1-.438.2.545.545,0,0,1-.314-.122.429.429,0,0,1-.15-.349,3.087,3.087,0,0,1,.082-.729,4.41,4.41,0,0,1,.205-.653c.1-.213.177-.395.273-.562a4.534,4.534,0,0,1,.246-.471,10.068,10.068,0,0,1,.725-1.215,4.734,4.734,0,0,1,.656-.8,2.429,2.429,0,0,1,.587-.471,1.378,1.378,0,0,1,.534-.182H11.7a.207.207,0,0,1,.123.045.818.818,0,0,1,.1.137.569.569,0,0,1,.055.137.61.61,0,0,0,.027.076c0,.046-.014.106-.014.2m5.072.395a.25.25,0,0,0-.191.122c-.41.456-.806.911-1.2,1.367a12.573,12.573,0,0,1-1.244,1.261,3.129,3.129,0,0,1-.52.41.888.888,0,0,1-.451.152.415.415,0,0,1-.329-.213,1.729,1.729,0,0,1-.232-.516,4.822,4.822,0,0,1-.137-.653,5.053,5.053,0,0,1-.041-.608,5.211,5.211,0,0,1,.055-.714c.041-.213.082-.41.124-.577a3.736,3.736,0,0,0,.123-.425,1.236,1.236,0,0,0,.068-.349.214.214,0,0,0-.082-.152.609.609,0,0,0-.164-.167,1.8,1.8,0,0,0-.177-.167.465.465,0,0,1-.109-.152c-.028-.076-.069-.137-.1-.2a.551.551,0,0,0-.11-.182.4.4,0,0,0-.137-.137.3.3,0,0,0-.205-.061,2.724,2.724,0,0,0-1.176.273,3.4,3.4,0,0,0-1.107.82,6.693,6.693,0,0,0-.875,1.154,10.279,10.279,0,0,0-.752,1.4,13.1,13.1,0,0,0-.52,1.428,5.017,5.017,0,0,0-.191,1.245,1.555,1.555,0,0,0,.109.592,1.38,1.38,0,0,0,.287.44,1.18,1.18,0,0,0,.424.273,1.3,1.3,0,0,0,.492.091.8.8,0,0,0,.342-.137,3.18,3.18,0,0,0,.52-.364q.287-.228.574-.5a4.3,4.3,0,0,0,.492-.516c.041-.061.1-.137.164-.228.068-.106.15-.213.232-.334a3.789,3.789,0,0,0,.26-.365c.1-.121.177-.243.246-.334.082-.106.15-.182.205-.258.068-.061.1-.091.123-.091s.041.03.068.091a.65.65,0,0,1,.055.2,2.015,2.015,0,0,1,.055.273c.028.091.041.182.068.258a1.951,1.951,0,0,0,.164.395,1.518,1.518,0,0,0,.26.334,1.137,1.137,0,0,0,.3.243.67.67,0,0,0,.328.091,1.84,1.84,0,0,0,.875-.273,4.354,4.354,0,0,0,.971-.775c.314-.3.615-.638.93-.987a12.33,12.33,0,0,0,.875-1.155,3,3,0,0,0,.287-.516,1.245,1.245,0,0,0,.137-.547c0-.167-.055-.258-.164-.258m14.176.759a.23.23,0,0,0-.15.091c-.315.364-.63.7-.93,1.018s-.574.623-.862.911c-.574.562-1.012.835-1.312.835a.962.962,0,0,1-.752-.456,4.411,4.411,0,0,1-.287-.471c-.081-.167-.15-.334-.219-.5s-.123-.349-.191-.563-.15-.44-.219-.7c-.068-.213-.137-.395-.191-.562a2.26,2.26,0,0,0-.177-.38.56.56,0,0,0-.561-.3,1.186,1.186,0,0,0-.875.547,7.42,7.42,0,0,0-.916,1.428c-.028.046-.068.153-.15.289-.068.152-.15.3-.233.456-.081.167-.164.319-.232.456s-.124.228-.137.258c-.206.395-.342.592-.424.592-.055,0-.124-.349-.178-1.033-.027-.349-.068-.683-.109-1-.041-.3-.1-.592-.137-.881a1.982,1.982,0,0,0-.52-1.139.321.321,0,0,0-.219-.061,1.576,1.576,0,0,0-1.217.7c-.177.243-.382.532-.6.866s-.438.714-.7,1.155c-.246.425-.451.79-.643,1.063a4,4,0,0,1-.451.607,9.114,9.114,0,0,1,.124-1.109c.041-.213.081-.456.123-.7s.082-.471.123-.714a6.433,6.433,0,0,0,.082-.7,4.611,4.611,0,0,0,.041-.592c0-.683-.219-1.018-.67-1.018a.314.314,0,0,0-.26.122.469.469,0,0,0-.1.3,5.137,5.137,0,0,1-.041.577c-.028.228-.069.516-.11.835-.041.243-.1.592-.177,1.079-.041.228-.082.456-.11.653s-.055.365-.068.516c-.014.137-.027.289-.041.44-.014.167-.014.319-.014.471a5.747,5.747,0,0,0,.15,1.306.66.66,0,0,0,.67.577.561.561,0,0,0,.465-.3c.068-.106.15-.228.232-.38s.178-.334.287-.547c.068-.121.123-.243.192-.364s.123-.243.191-.364c.219-.41.438-.8.67-1.215a10.464,10.464,0,0,1,.821-1.2c.3-.41.533-.607.683-.623a1.123,1.123,0,0,1,.273.715c.014.152.028.364.028.623.014.273.027.592.027.972a6.51,6.51,0,0,0,.192,1.64.589.589,0,0,0,.615.486c.205,0,.424-.182.683-.547.246-.38.547-.911.916-1.625a16.148,16.148,0,0,1,.889-1.611c.232-.365.437-.547.629-.547.123,0,.287.228.465.7.082.228.177.471.273.683.082.228.178.456.26.668a5.643,5.643,0,0,0,.6,1.169.956.956,0,0,0,.779.516,1.815,1.815,0,0,0,.834-.3,4.587,4.587,0,0,0,.465-.319c.15-.106.273-.213.4-.319a8.943,8.943,0,0,0,.943-1.018,14.643,14.643,0,0,0,.916-1.322,1.385,1.385,0,0,0,.233-.638c0-.137-.028-.2-.1-.2m6.559.7a1.349,1.349,0,0,0,.014-.228.647.647,0,0,0-.082-.349.237.237,0,0,0-.205-.106.23.23,0,0,0-.177.091c-.15.213-.3.395-.424.547q-.206.251-.369.456l-.356.44c-.123.137-.26.3-.4.471-.424.5-.792.926-1.107,1.261a7.88,7.88,0,0,1-.848.835,3.711,3.711,0,0,1-.7.44,1.924,1.924,0,0,1-.643.122.3.3,0,0,1-.232-.106.944.944,0,0,1-.206-.3,2.1,2.1,0,0,1-.123-.471,2.726,2.726,0,0,1-.055-.592q0-.387.041-.82c.041-.289.068-.577.124-.85s.1-.547.15-.806.1-.5.15-.714.082-.395.11-.547a2.168,2.168,0,0,0,.041-.319.574.574,0,0,0-.15-.471.62.62,0,0,0-.437-.137.456.456,0,0,0-.315.137,1.345,1.345,0,0,0-.246.319,2.066,2.066,0,0,0-.164.364,1.945,1.945,0,0,0-.055.258v.228a2.351,2.351,0,0,1-.014.3c0,.091-.014.2-.014.3s-.028.2-.041.273a4.967,4.967,0,0,0-.068.623c-.028.243-.055.532-.068.82-.028.3-.041.607-.055.911-.013.319-.027.607-.027.866a2.962,2.962,0,0,0,.1.79,1.85,1.85,0,0,0,.26.638,1.241,1.241,0,0,0,.437.426,1.076,1.076,0,0,0,.588.152,2.528,2.528,0,0,0,.848-.167,4.647,4.647,0,0,0,.93-.547,8.725,8.725,0,0,0,1.067-.926,17.34,17.34,0,0,0,1.189-1.321q.184-.228.41-.5c.137-.182.287-.38.41-.562s.26-.364.369-.516c.1-.167.177-.319.233-.425a1.625,1.625,0,0,0,.109-.289M33.94,123.15a.557.557,0,0,0-.219-.137,1.459,1.459,0,0,0-.246-.061h-.191a.479.479,0,0,0-.424.243,1.121,1.121,0,0,0-.15.577,1.848,1.848,0,0,1-.027.289c-.028.076-.055.152-.082.213a.978.978,0,0,0-.068.182.455.455,0,0,0-.041.2.3.3,0,0,0,.1.2c.068.046.137.091.219.137a1.679,1.679,0,0,0,.26.076,1.7,1.7,0,0,0,.219.03q.082,0,.205-.182a3.406,3.406,0,0,0,.26-.456c.068-.182.15-.365.205-.562a1.648,1.648,0,0,0,.081-.456.4.4,0,0,0-.1-.289m8.871,7.2c.041-.106.082-.2.123-.3a2.48,2.48,0,0,0,.082-.3.916.916,0,0,0,.041-.258.631.631,0,0,0-.041-.244c-.028-.061-.068-.091-.109-.091s-.082.03-.124.091-.109.152-.191.259c-.191.289-.41.577-.615.866s-.451.547-.67.8-.437.5-.656.714a6.528,6.528,0,0,1-.643.577,2.951,2.951,0,0,1-.6.38,1,1,0,0,1-.506.152.528.528,0,0,1-.273-.091.714.714,0,0,1-.26-.258,1.729,1.729,0,0,1-.205-.516,3.386,3.386,0,0,1-.082-.82c0-.38.014-.79.055-1.245.028-.44.082-.9.137-1.352.055-.471.11-.911.178-1.336s.137-.8.205-1.124a2.29,2.29,0,0,1,.109-.38c.055-.167.124-.334.192-.516s.15-.38.219-.577c.081-.213.15-.411.218-.593s.11-.349.164-.5a1.221,1.221,0,0,0,.055-.349,1.041,1.041,0,0,0-.041-.289.592.592,0,0,0-.123-.228.756.756,0,0,0-.192-.182.429.429,0,0,0-.246-.061.641.641,0,0,0-.369.121,1.252,1.252,0,0,0-.3.395,3.353,3.353,0,0,0-.26.668q-.123.41-.246.957c-.11.486-.219,1.018-.315,1.61s-.205,1.185-.287,1.792-.15,1.215-.205,1.808-.082,1.139-.082,1.625a3.977,3.977,0,0,0,.41,2.02,1.252,1.252,0,0,0,1.121.684,2.038,2.038,0,0,0,.957-.274,4.618,4.618,0,0,0,1.039-.729,7.9,7.9,0,0,0,1.094-1.139,15.421,15.421,0,0,0,1.08-1.488Zm5.864-3.114a.7.7,0,0,0-.068-.243.418.418,0,0,0-.151-.167.468.468,0,0,0-.273-.061.432.432,0,0,0-.314.182,1.413,1.413,0,0,0-.273.577c-.055.213-.124.471-.205.744s-.15.532-.219.79-.15.487-.219.7a2.747,2.747,0,0,1-.192.425,2.279,2.279,0,0,1-.424.486,2.924,2.924,0,0,1-.465.364c-.164.106-.342.228-.52.349a5.539,5.539,0,0,1-.533.365,3.385,3.385,0,0,1-.574.289,1.557,1.557,0,0,1-.574.121.83.83,0,0,1-.246-.046.717.717,0,0,1-.273-.121.6.6,0,0,1-.246-.228.574.574,0,0,1-.1-.349c0-.152,0-.334.013-.516a5.313,5.313,0,0,1,.1-.532,8.811,8.811,0,0,1,.273-.912c.11-.3.219-.562.315-.79.109-.243.191-.44.26-.608a1.254,1.254,0,0,0,.109-.349c0-.091-.013-.182-.013-.258a.651.651,0,0,0-.068-.2.7.7,0,0,0-.137-.152.442.442,0,0,0-.219-.046.4.4,0,0,0-.287.122,1.658,1.658,0,0,0-.329.41,3.082,3.082,0,0,0-.273.547c-.082.213-.164.44-.246.7s-.15.516-.219.79-.137.532-.191.79-.1.486-.124.714a4.458,4.458,0,0,0-.041.547,1.64,1.64,0,0,0,.109.562,1.9,1.9,0,0,0,.342.547,1.739,1.739,0,0,0,.534.395,1.566,1.566,0,0,0,.725.152,1.68,1.68,0,0,0,.574-.121,6.559,6.559,0,0,0,.6-.273c.205-.121.4-.243.588-.38a5.333,5.333,0,0,0,.505-.365,2.621,2.621,0,0,0,.383-.289.53.53,0,0,1,.205-.106.081.081,0,0,1,.082.046c0,.03.014.076.014.122a2.241,2.241,0,0,1-.068.3c-.055.167-.11.38-.192.638s-.164.562-.26.9-.219.684-.328,1.049l-.246.729q-.123.364-.246.683c-.068.228-.137.425-.192.592a2.277,2.277,0,0,0-.068.44,1.122,1.122,0,0,0,.028.213.965.965,0,0,0,.1.213.661.661,0,0,0,.15.137.291.291,0,0,0,.191.061.572.572,0,0,0,.41-.137,1.187,1.187,0,0,0,.219-.364,4.315,4.315,0,0,0,.109-.456c.041-.167.068-.334.11-.471.055-.213.123-.44.191-.7s.137-.516.219-.775c.068-.273.15-.532.219-.806s.15-.532.219-.775.137-.486.205-.7.109-.395.151-.547.082-.334.15-.547.123-.425.191-.668c.068-.228.137-.471.219-.714s.15-.471.232-.7.137-.426.206-.623c.068-.182.123-.334.164-.471.014-.061.041-.137.068-.228s.041-.182.068-.289a2.1,2.1,0,0,0,.055-.258c.014-.091.028-.152.028-.182a1.814,1.814,0,0,0-.014-.273m11.235.137c-.014.076-.028.182-.041.273-.014.106-.041.213-.055.3-.014.106-.028.2-.041.273a4.31,4.31,0,0,1-.287.8,8.289,8.289,0,0,1-.479.9,7.576,7.576,0,0,1-.6.9,8.654,8.654,0,0,1-.629.775,4.443,4.443,0,0,1-.574.547.787.787,0,0,1-.438.2.545.545,0,0,1-.314-.122.429.429,0,0,1-.15-.349,3.086,3.086,0,0,1,.082-.729,4.408,4.408,0,0,1,.205-.653c.1-.213.177-.395.273-.562a4.671,4.671,0,0,1,.246-.471,10.066,10.066,0,0,1,.725-1.215,4.734,4.734,0,0,1,.656-.8,2.43,2.43,0,0,1,.587-.471,1.378,1.378,0,0,1,.534-.182h.014a.207.207,0,0,1,.123.045.866.866,0,0,1,.1.137.6.6,0,0,1,.055.137.789.789,0,0,0,.027.076c0,.046-.013.106-.013.2m5.072.395a.25.25,0,0,0-.192.122c-.41.456-.806.911-1.2,1.367a12.574,12.574,0,0,1-1.244,1.261,3.129,3.129,0,0,1-.52.41.886.886,0,0,1-.451.152.416.416,0,0,1-.329-.213,1.729,1.729,0,0,1-.232-.516,4.932,4.932,0,0,1-.137-.653,4.568,4.568,0,0,1,.014-1.322c.041-.213.081-.41.123-.577a3.735,3.735,0,0,0,.123-.425,1.236,1.236,0,0,0,.068-.349.214.214,0,0,0-.082-.152.606.606,0,0,0-.164-.167,1.88,1.88,0,0,0-.178-.167.465.465,0,0,1-.109-.152c-.028-.076-.068-.137-.1-.2a.562.562,0,0,0-.109-.182.406.406,0,0,0-.137-.137.3.3,0,0,0-.205-.061,2.724,2.724,0,0,0-1.176.273,3.4,3.4,0,0,0-1.107.82,6.693,6.693,0,0,0-.875,1.154,10.279,10.279,0,0,0-.752,1.4,13.1,13.1,0,0,0-.52,1.428,5.017,5.017,0,0,0-.191,1.245,1.555,1.555,0,0,0,.109.592,1.38,1.38,0,0,0,.287.44,1.18,1.18,0,0,0,.424.273,1.3,1.3,0,0,0,.492.091.8.8,0,0,0,.342-.137,3.18,3.18,0,0,0,.52-.364q.287-.228.574-.5a4.3,4.3,0,0,0,.492-.516c.041-.061.1-.137.164-.228.068-.106.15-.213.232-.334a3.788,3.788,0,0,0,.26-.365c.1-.121.177-.243.246-.334.082-.106.15-.182.205-.258.068-.061.1-.091.124-.091s.041.03.068.091a.672.672,0,0,1,.055.2,2.013,2.013,0,0,1,.055.273c.028.091.041.182.068.258a1.953,1.953,0,0,0,.164.395,1.539,1.539,0,0,0,.26.334,1.137,1.137,0,0,0,.3.243.67.67,0,0,0,.328.091,1.84,1.84,0,0,0,.875-.273,4.339,4.339,0,0,0,.971-.775c.314-.3.615-.638.93-.987a12.329,12.329,0,0,0,.875-1.155,3,3,0,0,0,.287-.516,1.245,1.245,0,0,0,.137-.547c0-.167-.055-.258-.164-.258m10.607.729a.291.291,0,0,0-.123-.046c-.068,0-.15.061-.246.167a3.066,3.066,0,0,0-.328.395c-.123.152-.246.3-.369.471s-.232.3-.328.41c-.273.289-.52.547-.766.79a7.905,7.905,0,0,1-.725.607,4.148,4.148,0,0,1-.657.425,1.54,1.54,0,0,1-.6.137.773.773,0,0,1-.574-.2,1.419,1.419,0,0,1-.314-.516,3.533,3.533,0,0,1-.137-.729c-.028-.273-.055-.547-.082-.835a8.112,8.112,0,0,0-.124-.9,2.9,2.9,0,0,0-.218-.7,1.057,1.057,0,0,0-.369-.456.974.974,0,0,0-.574-.167,1.591,1.591,0,0,0-.6.121,2.109,2.109,0,0,0-.505.334,3.64,3.64,0,0,0-.465.486c-.15.2-.3.395-.451.607-.205.3-.4.563-.574.806s-.329.471-.478.668c-.287.41-.492.607-.616.623a.961.961,0,0,1-.041-.273c0-.121.014-.273.028-.425l.081-.5.082-.5c.041-.152.068-.3.1-.44.041-.167.068-.3.109-.44.028-.121.068-.243.1-.349l.082-.319a2.5,2.5,0,0,0,.027-.334.978.978,0,0,0-.1-.44c-.055-.122-.11-.167-.178-.167a.651.651,0,0,0-.177.015.336.336,0,0,0-.164.046.827.827,0,0,0-.15.122,1.181,1.181,0,0,0-.137.243,4.946,4.946,0,0,0-.246.683c-.068.258-.124.516-.178.775s-.1.532-.137.79-.068.516-.1.759c-.055.532-.082.942-.082,1.2,0,.987.205,1.534.587,1.625a1.327,1.327,0,0,0,.411-.273c.15-.152.3-.319.465-.5s.3-.38.465-.592.273-.395.383-.577c.233-.349.424-.653.6-.911s.315-.471.451-.653a3.657,3.657,0,0,1,.342-.426,1.351,1.351,0,0,1,.273-.258.856.856,0,0,1,.233-.121,1.227,1.227,0,0,1,.246-.03.357.357,0,0,1,.26.121,1.292,1.292,0,0,1,.164.349,3.688,3.688,0,0,1,.124.563c.041.213.068.471.109.744.041.228.082.44.123.668a4.513,4.513,0,0,0,.164.653,3.163,3.163,0,0,0,.233.547,1.5,1.5,0,0,0,.3.41,1.277,1.277,0,0,0,.9.3,1.826,1.826,0,0,0,.519-.061,2.5,2.5,0,0,0,.465-.182,2.592,2.592,0,0,0,.437-.258c.15-.106.3-.228.465-.334.191-.152.4-.319.615-.516a8.206,8.206,0,0,0,.6-.623,8.364,8.364,0,0,0,.561-.668,5.9,5.9,0,0,0,.451-.668c.055-.091.1-.182.15-.273a2.772,2.772,0,0,0,.15-.274c.041-.106.082-.2.109-.289a1.128,1.128,0,0,0,.041-.289.146.146,0,0,0-.1-.152m8.474,2.567c-.027-.076-.055-.121-.1-.121a.369.369,0,0,0-.246.152c-.082.106-.177.213-.287.334a7.21,7.21,0,0,1-.506.607,3.879,3.879,0,0,1-.465.425,2.391,2.391,0,0,1-.465.258,1.69,1.69,0,0,1-.492.076c-.287,0-.52-.3-.711-.926a11,11,0,0,1-.273-2.826c0-.364.013-.729.041-1.078s.068-.729.123-1.139a1.235,1.235,0,0,0,.041-.258c.027-.137.055-.289.081-.456s.041-.334.068-.471a2.243,2.243,0,0,0,.041-.3c.068-.44.137-.806.191-1.125s.11-.577.15-.79.055-.38.082-.516.027-.228.027-.289a.29.29,0,0,0-.205-.258.9.9,0,0,0-.4-.091.6.6,0,0,0-.561.3,1.6,1.6,0,0,0-.109.516c-.028.258-.055.592-.082.972-.014.182-.014.349-.028.486s-.014.259-.028.35c-.027.334-.055.653-.1.942s-.068.577-.11.835c-.041.273-.081.532-.137.79-.055.243-.109.486-.177.729a5.169,5.169,0,0,0-.11-.85,3.362,3.362,0,0,0-.342-.9.612.612,0,0,0-.533-.38,2.673,2.673,0,0,0-1.381.289,3.193,3.193,0,0,0-.82.744,10.241,10.241,0,0,0-.779,1.033,11.722,11.722,0,0,0-.888,1.641,14.355,14.355,0,0,0-.643,1.777,3.558,3.558,0,0,0-.1.987,2.306,2.306,0,0,0,.205.957.651.651,0,0,0,.6.471,3.91,3.91,0,0,0,2.762-1.352,11.042,11.042,0,0,0,2.16-3.068c0,.319.014.638.028.957.013.3.055.592.081.881s.1.547.15.79a5.818,5.818,0,0,0,.205.653,2.7,2.7,0,0,0,.246.44c.109.122.205.243.314.349a1.717,1.717,0,0,0,.342.228.987.987,0,0,0,.342.076,2.078,2.078,0,0,0,.752-.137,3.032,3.032,0,0,0,.656-.41,3.962,3.962,0,0,0,.587-.623c.192-.243.369-.5.547-.775.013-.03.041-.076.068-.137s.055-.121.081-.2a.781.781,0,0,0,.068-.2.3.3,0,0,0,.028-.137,1.527,1.527,0,0,0-.014-.243m-5.4-1.261a2.918,2.918,0,0,1-.273.41c-.1.137-.233.288-.4.5-.177.2-.382.44-.642.744a7.063,7.063,0,0,1-1.04.911,1.91,1.91,0,0,1-1.025.486c-.287,0-.424-.228-.424-.683a4.222,4.222,0,0,1,.4-1.488c.068-.182.164-.38.273-.607s.246-.471.4-.745c.15-.258.3-.516.478-.775.164-.243.356-.516.561-.8.4-.547.725-.82.957-.82a.355.355,0,0,1,.246.106.879.879,0,0,1,.219.243,1.265,1.265,0,0,1,.164.3.959.959,0,0,1,.069.3,3.148,3.148,0,0,1-.041.44,3.565,3.565,0,0,0-.041.44.557.557,0,0,0,.1.334.368.368,0,0,0,.26.2c-.082.183-.15.35-.233.5m21.091-1.125a2.691,2.691,0,0,1-.273.3c-.109.121-.205.228-.328.349-.109.106-.219.229-.328.335-.124.121-.219.228-.329.319-.246.228-.519.471-.82.744-.315.258-.629.516-.971.775-.329.273-.684.516-1.039.759a10.362,10.362,0,0,1-1.108.638,6.854,6.854,0,0,1-1.121.44,3.976,3.976,0,0,1-1.093.167,1.971,1.971,0,0,1-.834-.167,1.332,1.332,0,0,1-.547-.425,1.631,1.631,0,0,1-.287-.653,3.041,3.041,0,0,1-.1-.82,5.222,5.222,0,0,1,.055-.775c.041-.258.1-.532.164-.8a5.412,5.412,0,0,1,.232-.806c.1-.258.192-.516.287-.759a7.34,7.34,0,0,1,.957-1.61,12.461,12.461,0,0,1,1.272-1.352,4.4,4.4,0,0,1,.587-.456c.246-.152.478-.3.725-.426s.492-.228.725-.319a2.047,2.047,0,0,1,.6-.122,1.021,1.021,0,0,1,.356.061,1.147,1.147,0,0,1,.328.167c-.027.046-.081.152-.164.289a2.607,2.607,0,0,1-.369.487,2.137,2.137,0,0,0-.328.456.77.77,0,0,0-.1.3.645.645,0,0,0,.15.456.492.492,0,0,0,.41.182.755.755,0,0,0,.588-.334,2.764,2.764,0,0,0,.219-.319c.1-.167.177-.334.273-.516a4.488,4.488,0,0,0,.246-.516.887.887,0,0,0,.11-.38,1.074,1.074,0,0,0-.068-.3,2.274,2.274,0,0,0-.178-.365,2.684,2.684,0,0,0-.219-.334,1.02,1.02,0,0,0-.205-.228,1.275,1.275,0,0,0-.424-.213,2.58,2.58,0,0,0-.656-.061,1.973,1.973,0,0,0-.6.106c-.233.076-.465.167-.7.258-.233.106-.465.228-.67.334q-.327.182-.533.319c-.219.137-.424.3-.656.471q-.328.273-.656.593a8.76,8.76,0,0,0-.616.638c-.191.213-.369.44-.533.653a10.816,10.816,0,0,0-.711,1.139,10.637,10.637,0,0,0-.561,1.291A9.329,9.329,0,0,0,89.568,130a6.71,6.71,0,0,0-.137,1.367,4.941,4.941,0,0,0,.177,1.321,2.691,2.691,0,0,0,.534,1.018,2.213,2.213,0,0,0,.875.654,3.2,3.2,0,0,0,1.258.228,4.4,4.4,0,0,0,1.367-.213,8.167,8.167,0,0,0,1.436-.578,14.169,14.169,0,0,0,1.408-.866,15.661,15.661,0,0,0,1.34-1.033c.137-.122.287-.243.438-.38s.3-.273.451-.425c.15-.137.3-.273.438-.41s.246-.273.342-.38a2.021,2.021,0,0,0,.561-1.14.515.515,0,0,0-.3-.486m9.144-1.352a.1.1,0,0,0-.068-.03,1.3,1.3,0,0,0-.15.046c-.1.03-.219.076-.369.121s-.3.091-.479.152-.328.106-.492.152-.287.091-.4.122-.191.061-.219.061a2.883,2.883,0,0,1-.382.076l-.424.046c-.137.015-.274.015-.424.03h-.383a.534.534,0,0,1-.356-.182,4.931,4.931,0,0,1-.41-.395c-.137-.152-.273-.273-.4-.395a.519.519,0,0,0-.315-.182.34.34,0,0,0-.177.03.468.468,0,0,1-.137.015c-.027,0-.041,0-.055-.03a.819.819,0,0,1-.1-.137.781.781,0,0,0-.1-.121.218.218,0,0,0-.109-.091.367.367,0,0,0-.192-.046,1.343,1.343,0,0,0-.683.2,2.853,2.853,0,0,0-.643.516,4.83,4.83,0,0,0-.6.714,8.988,8.988,0,0,0-.52.82,7.763,7.763,0,0,0-.41.821c-.123.273-.205.516-.273.714-.014.076-.041.167-.068.273s-.041.213-.055.319c-.027.121-.041.228-.055.334a2.027,2.027,0,0,0-.014.273,3.961,3.961,0,0,0,.082.82,2.4,2.4,0,0,0,.219.7,1.567,1.567,0,0,0,.356.486.844.844,0,0,0,.492.167,3.72,3.72,0,0,0,.834-.076,2.69,2.69,0,0,0,.807-.273,4.923,4.923,0,0,0,.67-.38,3.806,3.806,0,0,0,.506-.425,2.813,2.813,0,0,0,.424-.5,5.079,5.079,0,0,0,.356-.592,1.821,1.821,0,0,0,.123-.289,3.929,3.929,0,0,0,.11-.38c.041-.137.055-.258.082-.395.013-.121.027-.243.027-.319a4.058,4.058,0,0,0-.041-.592c-.041-.2-.068-.38-.11-.578a.411.411,0,0,0,.192.122c.081.03.177.076.273.106a1.914,1.914,0,0,0,.287.061.651.651,0,0,0,.219.03c.137,0,.3,0,.492-.015s.4-.046.6-.076.41-.061.6-.106a2.354,2.354,0,0,0,.451-.152.625.625,0,0,0,.233-.137,2.739,2.739,0,0,0,.314-.213c.1-.076.205-.167.315-.258a2.976,2.976,0,0,0,.287-.3,1.432,1.432,0,0,0,.205-.3.529.529,0,0,0,.082-.273.085.085,0,0,0-.041-.076m-5.25,2.264a6.819,6.819,0,0,1-.219.957,5.621,5.621,0,0,1-.369.835,2.8,2.8,0,0,1-.492.653,2.049,2.049,0,0,1-.615.44,1.673,1.673,0,0,1-.739.167.678.678,0,0,1-.287-.076.854.854,0,0,1-.218-.182,1.066,1.066,0,0,1-.192-.592,4.485,4.485,0,0,1,.11-.866,7.018,7.018,0,0,1,.287-1.018,5.128,5.128,0,0,1,.41-.942,3.056,3.056,0,0,1,.492-.7,1.672,1.672,0,0,0,.191-.152,1.774,1.774,0,0,1,.205-.152,1.709,1.709,0,0,1,.233-.122.583.583,0,0,1,.233-.046.853.853,0,0,1,.314.076,1.334,1.334,0,0,1,.315.182,2.223,2.223,0,0,1,.273.243,1.212,1.212,0,0,1,.15.288,5.953,5.953,0,0,1-.082,1m18.907-1c-.055,0-.1.03-.15.091l-.451.5-.41.456c-.137.152-.273.289-.4.425-.137.152-.273.289-.411.425s-.3.273-.465.425c-.164.137-.328.258-.478.364a2.141,2.141,0,0,1-.465.273.752.752,0,0,1-.355.106c-.233,0-.424-.152-.561-.456a5.5,5.5,0,0,1-.286-1.382c-.028-.289-.041-.563-.055-.79-.013-.243-.027-.471-.041-.653a2.94,2.94,0,0,0-.068-.532,1.21,1.21,0,0,0-.137-.395.562.562,0,0,0-.123-.137.537.537,0,0,0-.178-.106.671.671,0,0,0-.205-.076.931.931,0,0,0-.205-.015.661.661,0,0,0-.369.182,3.443,3.443,0,0,0-.478.486,7.789,7.789,0,0,0-.506.714c-.177.258-.328.532-.492.82-.15.3-.287.563-.41.806s-.233.456-.342.653c-.191.395-.342.592-.424.592-.014,0-.028-.015-.055-.046-.028-.015-.041-.061-.068-.137a1.466,1.466,0,0,1-.082-.273,2.747,2.747,0,0,1-.055-.425c-.014-.182-.028-.364-.041-.562s-.014-.395-.028-.593-.027-.395-.055-.577a4.347,4.347,0,0,0-.055-.471,1.633,1.633,0,0,0-.315-.729.744.744,0,0,0-.561-.273,1.21,1.21,0,0,0-.629.182,2.191,2.191,0,0,0-.587.547c-.082.121-.192.258-.3.44-.109.167-.219.349-.342.547s-.219.395-.328.578-.192.364-.274.532c-.123.213-.246.425-.356.638-.123.2-.232.395-.342.562-.109.182-.205.319-.3.456a1.68,1.68,0,0,1-.219.289c0-.106.013-.228.027-.395q.021-.228.082-.638c.014-.122.028-.258.055-.425s.068-.349.1-.562c.041-.2.082-.41.109-.639.041-.213.082-.44.11-.638.027-.213.055-.41.082-.577.014-.182.027-.334.027-.456a2.485,2.485,0,0,0-.027-.319,1,1,0,0,0-.082-.289.472.472,0,0,0-.15-.182.353.353,0,0,0-.219-.076.381.381,0,0,0-.191.076,2.462,2.462,0,0,0-.205.2.778.778,0,0,0-.164.213.727.727,0,0,0-.1.213,3.194,3.194,0,0,0-.068.456q-.02.3-.041.638c-.014.228-.041.471-.055.714s-.041.471-.055.684c-.028.258-.055.471-.082.668s-.055.38-.068.547l-.041.5c-.014.167-.014.349-.014.547v.289a.88.88,0,0,0,.014.2l.041.182c.013.061.027.152.055.243a.66.66,0,0,0,.67.577.56.56,0,0,0,.465-.3c.068-.091.123-.213.205-.349s.164-.289.246-.44l.246-.456c.068-.152.15-.289.205-.41.233-.456.451-.866.683-1.245.233-.395.438-.729.629-1a5.6,5.6,0,0,1,.52-.669c.15-.152.273-.243.356-.243.123,0,.233.213.314.607a9.981,9.981,0,0,1,.151,1.732,6.886,6.886,0,0,0,.178,1.64.609.609,0,0,0,.615.471c.205,0,.438-.182.683-.547.246-.38.547-.911.916-1.625.178-.364.356-.683.52-.972s.328-.532.465-.73a2.685,2.685,0,0,1,.369-.471c.1-.106.178-.167.246-.167.027,0,.068.03.1.106a2.6,2.6,0,0,1,.082.3c.014.121.041.273.055.441s.041.334.055.516c.027.167.041.349.068.532s.041.349.068.516a5.065,5.065,0,0,0,.205.911,2.193,2.193,0,0,0,.273.562.767.767,0,0,0,.356.273.931.931,0,0,0,.424.076,1.271,1.271,0,0,0,.547-.122,3.5,3.5,0,0,0,.574-.3,5.134,5.134,0,0,0,.533-.395c.178-.152.315-.289.451-.395q.246-.228.492-.5c.164-.182.314-.365.465-.532.15-.182.287-.365.41-.532a4.275,4.275,0,0,0,.287-.44,1.518,1.518,0,0,0,.124-.228l.081-.228c.028-.091.041-.167.055-.228a1.062,1.062,0,0,0,.027-.167c0-.137-.027-.2-.1-.2m14.133-.061a.23.23,0,0,0-.15.091c-.315.364-.629.7-.93,1.018s-.574.623-.862.911c-.574.562-1.011.835-1.312.835a.96.96,0,0,1-.752-.456,4.3,4.3,0,0,1-.287-.471c-.082-.167-.15-.334-.219-.5s-.123-.349-.191-.563-.15-.44-.219-.7c-.068-.213-.137-.395-.192-.562a2.259,2.259,0,0,0-.177-.38.56.56,0,0,0-.561-.3,1.186,1.186,0,0,0-.875.547,7.489,7.489,0,0,0-.916,1.428c-.027.046-.068.153-.15.289-.068.152-.15.3-.232.456-.082.167-.164.319-.233.456s-.123.228-.137.258c-.205.395-.342.592-.424.592-.055,0-.123-.349-.178-1.033-.027-.349-.068-.683-.109-1-.041-.3-.1-.592-.137-.881a1.977,1.977,0,0,0-.52-1.139.321.321,0,0,0-.219-.061,1.574,1.574,0,0,0-1.216.7c-.178.243-.383.532-.6.866s-.438.714-.7,1.155c-.246.425-.451.79-.643,1.063a4,4,0,0,1-.451.607,9.062,9.062,0,0,1,.123-1.109c.041-.213.082-.456.123-.7s.082-.471.123-.714a6.437,6.437,0,0,0,.082-.7,4.619,4.619,0,0,0,.041-.592c0-.683-.219-1.018-.67-1.018a.315.315,0,0,0-.26.122.469.469,0,0,0-.1.3,5.137,5.137,0,0,1-.041.577c-.028.228-.068.516-.11.835-.041.243-.1.592-.177,1.079-.041.228-.082.456-.11.653s-.055.365-.068.516c-.013.137-.027.289-.041.44-.014.167-.014.319-.014.471a5.748,5.748,0,0,0,.15,1.306.661.661,0,0,0,.67.577.56.56,0,0,0,.465-.3c.068-.106.151-.228.233-.38s.177-.334.287-.547c.068-.121.123-.243.191-.364s.123-.243.191-.364c.219-.41.438-.8.67-1.215a10.363,10.363,0,0,1,.82-1.2c.3-.41.533-.607.683-.623a1.119,1.119,0,0,1,.273.715c.014.152.028.364.028.623.014.273.028.592.028.972a6.485,6.485,0,0,0,.191,1.64.589.589,0,0,0,.615.486c.205,0,.424-.182.684-.547.246-.38.547-.911.916-1.625a16.031,16.031,0,0,1,.888-1.611c.233-.365.438-.547.629-.547.123,0,.287.228.465.7.082.228.178.471.273.683.082.228.178.456.26.668a5.642,5.642,0,0,0,.6,1.169.956.956,0,0,0,.779.516,1.815,1.815,0,0,0,.834-.3,4.524,4.524,0,0,0,.465-.319,4.992,4.992,0,0,0,.4-.319,9.012,9.012,0,0,0,.944-1.018,14.937,14.937,0,0,0,.916-1.322,1.382,1.382,0,0,0,.232-.638c0-.137-.027-.2-.1-.2m10.81-1.352a.234.234,0,0,0-.123-.061c-.082,0-.191.091-.329.243q-.205.273-.492.683c-.177.258-.382.547-.6.835-.219.3-.451.593-.683.882a9.616,9.616,0,0,1-.725.8,5.66,5.66,0,0,1-.739.577,1.458,1.458,0,0,1-.7.213.708.708,0,0,1-.629-.425,2.632,2.632,0,0,1-.232-1.215c0-.182.013-.38.027-.623a6.607,6.607,0,0,1,.082-.7c.028-.243.055-.471.1-.7a6.071,6.071,0,0,1,.1-.607c.028-.182.055-.319.068-.425.028-.121.041-.167.041-.182a.646.646,0,0,0-.11-.3.338.338,0,0,0-.287-.137.334.334,0,0,0-.164.046.657.657,0,0,0-.178.076,1.277,1.277,0,0,0-.137.122c-.027.046-.055.076-.068.106-.027.091-.055.182-.068.243-.014.076-.041.137-.055.2s-.014.122-.028.182c-.013.076-.027.137-.041.213-.028.091-.068.213-.123.38-.055.152-.124.334-.205.516s-.137.349-.219.516-.124.289-.164.365a4.3,4.3,0,0,1-.3.517c-.123.2-.246.38-.382.577-.15.182-.287.364-.424.547a4.112,4.112,0,0,1-.424.456,2.575,2.575,0,0,1-.4.38c-.15.122-.3.228-.451.334a3.453,3.453,0,0,1-.478.228,1.359,1.359,0,0,1-.465.106.4.4,0,0,1-.273-.091.938.938,0,0,1-.164-.243,1.243,1.243,0,0,1-.081-.3,2.128,2.128,0,0,1-.014-.289,8.226,8.226,0,0,1,.082-1.185c.068-.38.123-.73.205-1.049.068-.3.137-.577.191-.79a2.64,2.64,0,0,0,.1-.44,1.122,1.122,0,0,0-.028-.213.56.56,0,0,0-.082-.213.459.459,0,0,0-.137-.152.535.535,0,0,0-.233-.061.626.626,0,0,0-.177.061.614.614,0,0,0-.123.152.833.833,0,0,0-.11.228c-.041.091-.068.182-.109.289a4.016,4.016,0,0,0-.205.623c-.055.228-.1.456-.137.683s-.082.456-.11.684c-.027.213-.055.41-.068.592a3.226,3.226,0,0,0-.041.456,1.886,1.886,0,0,0-.014.213,7.107,7.107,0,0,0,.041.744,2.148,2.148,0,0,0,.164.683,1.244,1.244,0,0,0,.424.516,1.183,1.183,0,0,0,.738.2,2.4,2.4,0,0,0,.752-.167,4.747,4.747,0,0,0,.657-.365,5.411,5.411,0,0,0,.533-.425c.15-.137.287-.258.4-.365a5.189,5.189,0,0,0,.534-.592c.177-.228.328-.425.465-.638.151-.2.26-.365.369-.532a2.289,2.289,0,0,1,.219-.3l.082.046a3.632,3.632,0,0,0,.465,1.929,1.363,1.363,0,0,0,1.2.653,1.564,1.564,0,0,0,.766-.228,3.472,3.472,0,0,0,.82-.592,7.62,7.62,0,0,0,.835-.866,9.806,9.806,0,0,0,.792-1.048,11.815,11.815,0,0,0,.711-1.14c.219-.38.41-.759.574-1.109a.5.5,0,0,0,.041-.182.262.262,0,0,0-.041-.137m9.91,1.017c-.055-.03-.082-.046-.1-.076-.3.38-.629.8-1,1.261A13.959,13.959,0,0,1,155,130.851a5.238,5.238,0,0,1-.848.714,1.387,1.387,0,0,1-.779.243.71.71,0,0,1-.478-.152,1.209,1.209,0,0,1-.315-.425,2.582,2.582,0,0,1-.191-.653c-.055-.258-.1-.532-.15-.835a8.337,8.337,0,0,0-.137-.851,3.408,3.408,0,0,0-.246-.729,1.394,1.394,0,0,0-.369-.516.876.876,0,0,0-.588-.2,2.006,2.006,0,0,0-.547.076,1.626,1.626,0,0,0-.438.258,2.133,2.133,0,0,0-.41.41c-.123.167-.26.349-.41.562a6.681,6.681,0,0,0-.451.73c-.164.289-.328.562-.492.85s-.328.547-.492.79a2.362,2.362,0,0,1-.478.532c0-.03-.014-.061-.014-.106a.46.46,0,0,1,.014-.137v-.243a2.867,2.867,0,0,1,.041-.44c.028-.167.055-.349.082-.532.041-.167.068-.349.11-.516s.082-.32.109-.456q.1-.5.205-.957a3.277,3.277,0,0,0,.11-.82.394.394,0,0,0-.055-.228.611.611,0,0,0-.15-.137.455.455,0,0,0-.178-.076c-.055,0-.109-.015-.137-.015a.41.41,0,0,0-.314.2,2.812,2.812,0,0,0-.26.486.884.884,0,0,0-.068.228c-.014.091-.027.2-.041.319a2.724,2.724,0,0,0-.055.364c-.014.137-.041.273-.068.41-.028.2-.068.44-.11.73s-.068.577-.109.881c-.028.288-.055.577-.082.85-.014.289-.028.516-.028.7a3.5,3.5,0,0,0,.041.608,1.563,1.563,0,0,0,.109.364.5.5,0,0,0,.191.2,1.37,1.37,0,0,0,.26.106,2.083,2.083,0,0,0,.328-.273,3.586,3.586,0,0,0,.4-.425,6.022,6.022,0,0,0,.424-.562c.15-.2.3-.41.438-.623.219-.365.438-.714.643-1.048s.41-.638.6-.9a3.221,3.221,0,0,1,.534-.623.73.73,0,0,1,.478-.228.3.3,0,0,1,.233.106,1.278,1.278,0,0,1,.205.334,6.25,6.25,0,0,1,.177.608c.068.243.124.547.192.911.055.289.109.577.177.85a2.914,2.914,0,0,0,.273.744,1.62,1.62,0,0,0,.451.532,1.179,1.179,0,0,0,.711.2,1.943,1.943,0,0,0,.806-.182,3.411,3.411,0,0,0,.793-.486,5.4,5.4,0,0,0,.766-.668c.233-.258.465-.516.67-.79a9.721,9.721,0,0,0,.587-.79c.164-.258.315-.486.438-.7a2.429,2.429,0,0,0,.26-.547,1.389,1.389,0,0,0,.124-.562.115.115,0,0,0-.082-.122m1.651-5.574a1.247,1.247,0,0,0-.588-.121.68.68,0,0,0-.3.152,1.926,1.926,0,0,0-.492.532,1.329,1.329,0,0,0-.205.7c0,.137.11.228.329.289a2.117,2.117,0,0,0,.587.091.706.706,0,0,0,.643-.349,1.458,1.458,0,0,0,.233-.82.486.486,0,0,0-.205-.471m4.512,6.258c-.028-.121-.068-.167-.137-.167-.014-.015-.028,0-.041.015l-.041.046a.17.17,0,0,0-.028.076.08.08,0,0,0-.027.046c-.124.167-.246.334-.411.532s-.328.411-.519.623c-.205.228-.4.44-.6.653s-.424.41-.642.623a7.2,7.2,0,0,1-.656.562c-.219.167-.438.319-.656.471a2.366,2.366,0,0,1-1.149.395c-.328,0-.547-.258-.67-.775a6.527,6.527,0,0,1-.191-1.519c0-.228.013-.5.041-.8s.068-.654.123-1.049c.041-.213.068-.425.1-.638a4.347,4.347,0,0,0,.041-.562c0-.258-.055-.38-.177-.38a.968.968,0,0,0-.643.273,1.214,1.214,0,0,0-.4.608c-.028.121-.055.273-.082.471s-.055.425-.082.683q-.082.8-.082,1.185a9.329,9.329,0,0,0,.164,1.762,3.487,3.487,0,0,0,.6,1.458,1.471,1.471,0,0,0,1.258.607,2.74,2.74,0,0,0,1.669-.775c.314-.258.615-.516.888-.79a11.413,11.413,0,0,0,.793-.866c.219-.258.424-.516.629-.775s.369-.486.52-.714a7.02,7.02,0,0,0,.355-.607,1.129,1.129,0,0,0,.123-.426.681.681,0,0,0-.068-.243m6.369-1.5c-.027-.046-.055-.076-.1-.076a.368.368,0,0,0-.124-.03,1.056,1.056,0,0,0-.109.015c-.137.015-.273.046-.4.061s-.246.046-.383.061a3.124,3.124,0,0,1-.438.061c-.15.03-.328.046-.533.076l-1.217.091c-.41.015-.834.03-1.23.03q-.246,0-.246-.273a15.569,15.569,0,0,1,.629-2.75,3.062,3.062,0,0,0,.15-.866c0-.41-.164-.608-.492-.608a.5.5,0,0,0-.478.38,3.144,3.144,0,0,0-.123.44,4.688,4.688,0,0,0-.11.516c-.014.061-.028.152-.041.228a2.685,2.685,0,0,1-.055.289c-.027.182-.055.289-.055.319q-.04.182-.082.41c-.041.167-.081.349-.123.562-.055.2-.1.395-.15.592s-.123.38-.177.577c-.137.364-.246.547-.355.547a2.9,2.9,0,0,0-.342.015,3.222,3.222,0,0,0-.506.046c-.191.015-.356.03-.478.03a2.21,2.21,0,0,1-.287.015,3.709,3.709,0,0,1-.41-.015,3.242,3.242,0,0,1-.383-.03,1.3,1.3,0,0,0,.082.471.912.912,0,0,0,.219.364,1.112,1.112,0,0,0,.342.243,1.333,1.333,0,0,0,.438.076,1.008,1.008,0,0,0,.191-.015,2.944,2.944,0,0,0,.314-.03,1.61,1.61,0,0,1,.356-.046,2.007,2.007,0,0,1,.287-.015.294.294,0,0,1,.192.061.267.267,0,0,1,.068.182,7.557,7.557,0,0,1-.137.79q-.062.319-.164.866c-.068.38-.164.835-.273,1.382a.839.839,0,0,1-.028.137c-.014.061-.027.121-.041.2a3.8,3.8,0,0,0-.082.41.747.747,0,0,0-.014.167.626.626,0,0,0-.014.152,2.483,2.483,0,0,0,.11.7,3.822,3.822,0,0,0,.151.365,2.43,2.43,0,0,0,.205.365c.15.258.3.38.451.38s.26-.091.369-.273a.911.911,0,0,0,.178-.516,2.426,2.426,0,0,0-.11-.5c-.027-.106-.068-.213-.082-.289a1.117,1.117,0,0,0-.068-.213,1.713,1.713,0,0,1-.041-.41c0-.121.014-.243.027-.38.014-.122.041-.273.068-.456a1.539,1.539,0,0,0,.055-.243c.014-.076.027-.152.041-.213.068-.41.164-.835.26-1.306l.287-1.368a.9.9,0,0,1,.287-.152c.124-.03.273-.061.451-.091s.41-.061.657-.091.533-.076.861-.137c.164-.03.369-.046.574-.076s.424-.061.643-.106c.219-.03.424-.076.629-.121a2.166,2.166,0,0,0,.52-.182,1,1,0,0,1,.164-.106c.055-.046.11-.091.15-.121a.756.756,0,0,0,.124-.395.2.2,0,0,0-.055-.167m5.262-.137a.712.712,0,0,0-.068-.243.423.423,0,0,0-.15-.167.469.469,0,0,0-.273-.061.433.433,0,0,0-.315.182,1.422,1.422,0,0,0-.273.577c-.055.213-.123.471-.205.744s-.15.532-.219.79-.15.487-.219.7a2.829,2.829,0,0,1-.191.425,2.279,2.279,0,0,1-.424.486,2.986,2.986,0,0,1-.465.364c-.164.106-.342.228-.52.349a5.627,5.627,0,0,1-.533.365,3.41,3.41,0,0,1-.574.289,1.563,1.563,0,0,1-.574.121.838.838,0,0,1-.246-.046.726.726,0,0,1-.273-.121.606.606,0,0,1-.246-.228.574.574,0,0,1-.1-.349c0-.152,0-.334.014-.516a5.134,5.134,0,0,1,.1-.532,8.654,8.654,0,0,1,.274-.912c.109-.3.218-.562.314-.79.11-.243.191-.44.26-.608a1.264,1.264,0,0,0,.11-.349c0-.091-.014-.182-.014-.258a.632.632,0,0,0-.068-.2.684.684,0,0,0-.137-.152.438.438,0,0,0-.219-.046.4.4,0,0,0-.287.122,1.658,1.658,0,0,0-.328.41,2.99,2.99,0,0,0-.273.547c-.082.213-.164.44-.246.7s-.15.516-.219.79-.137.532-.191.79-.1.486-.123.714a4.337,4.337,0,0,0-.041.547,1.642,1.642,0,0,0,.11.562,1.884,1.884,0,0,0,.342.547,1.736,1.736,0,0,0,.533.395,1.568,1.568,0,0,0,.725.152,1.68,1.68,0,0,0,.574-.121c.191-.076.4-.167.6-.273.206-.121.4-.243.588-.38a5.439,5.439,0,0,0,.506-.365,2.575,2.575,0,0,0,.382-.289.535.535,0,0,1,.206-.106.08.08,0,0,1,.081.046c0,.03.014.076.014.122a2.132,2.132,0,0,1-.068.3c-.055.167-.109.38-.191.638s-.164.562-.26.9-.219.684-.329,1.049l-.246.729q-.123.364-.246.683c-.068.228-.137.425-.191.592a2.276,2.276,0,0,0-.068.44,1.122,1.122,0,0,0,.028.213.965.965,0,0,0,.1.213.691.691,0,0,0,.15.137.291.291,0,0,0,.191.061.57.57,0,0,0,.41-.137,1.186,1.186,0,0,0,.219-.364,4.321,4.321,0,0,0,.11-.456c.041-.167.068-.334.109-.471.055-.213.124-.44.192-.7s.137-.516.218-.775c.068-.273.15-.532.219-.806s.15-.532.219-.775.137-.486.205-.7.11-.395.15-.547.082-.334.15-.547.123-.425.191-.668c.068-.228.137-.471.219-.714s.15-.471.233-.7.137-.426.205-.623c.068-.182.123-.334.164-.471.013-.061.041-.137.068-.228s.041-.182.068-.289a2.385,2.385,0,0,0,.055-.258c.014-.091.028-.152.028-.182a1.812,1.812,0,0,0-.014-.273m13.805-3.251a1.759,1.759,0,0,0-.534-.486,1.525,1.525,0,0,0-.369-.152,4,4,0,0,0-.492-.121c-.164-.03-.342-.046-.505-.061s-.287-.03-.4-.03a2.687,2.687,0,0,0-.328.015c-.123.015-.26.03-.4.046s-.26.046-.382.061a2.971,2.971,0,0,0-.328.076A6.468,6.468,0,0,0,184,123.8a5.434,5.434,0,0,0-1.094.683,3.286,3.286,0,0,0-.766.836,1.63,1.63,0,0,0-.273.942,2.67,2.67,0,0,0,.629,1.792,4.107,4.107,0,0,0,1.531,1.124c.369.152.7.289,1.012.411q.451.16.82.273a6.627,6.627,0,0,1,.683.228,3.21,3.21,0,0,1,.752.38.735.735,0,0,1,.369.547.84.84,0,0,1-.1.395,1.846,1.846,0,0,1-.246.334,2.031,2.031,0,0,1-.314.3c-.123.091-.219.182-.315.243a3.92,3.92,0,0,1-.683.41,6.3,6.3,0,0,1-.779.365,5.924,5.924,0,0,1-.848.243,4.208,4.208,0,0,1-1.49.046,2.8,2.8,0,0,1-.465-.106c-.137-.046-.246-.076-.342-.106a.932.932,0,0,0-.273-.046.163.163,0,0,0-.137.091.831.831,0,0,0-.1.228,1.972,1.972,0,0,0-.068.273,1.656,1.656,0,0,0-.028.243.4.4,0,0,0,.192.289,1.631,1.631,0,0,0,.451.228,3.783,3.783,0,0,0,.547.167,3.081,3.081,0,0,0,.451.046c.164,0,.342-.015.533-.03.206-.03.411-.061.616-.106s.437-.106.656-.167a6.368,6.368,0,0,0,.629-.2c.206-.076.411-.167.616-.258q.308-.159.574-.319.287-.182.533-.364a4.041,4.041,0,0,0,.438-.349c.109-.091.232-.213.369-.349a3.838,3.838,0,0,0,.356-.456,2.648,2.648,0,0,0,.273-.516,1.312,1.312,0,0,0,.109-.547,1.82,1.82,0,0,0-.725-1.443,6.545,6.545,0,0,0-2.242-1.018,1.5,1.5,0,0,1-.246-.091c-.124-.046-.26-.091-.41-.152-.15-.046-.287-.106-.424-.152l-.246-.091a2,2,0,0,1-.588-.3,3.077,3.077,0,0,1-.505-.456,2.876,2.876,0,0,1-.342-.532.917.917,0,0,1-.109-.471,1.141,1.141,0,0,1,.205-.5,2.6,2.6,0,0,1,.369-.425,4.286,4.286,0,0,1,.492-.349c.164-.091.342-.182.492-.258.219-.092.41-.168.6-.228a5.026,5.026,0,0,1,.574-.137c.191-.03.383-.046.588-.061.191,0,.4-.015.615-.015a3.372,3.372,0,0,1,.342.03,3.588,3.588,0,0,1,.383.106c.137.061.246.121.355.182a.587.587,0,0,1,.219.274,2.414,2.414,0,0,1,.123.835.7.7,0,0,0,.574-.213.575.575,0,0,0,.109-.213.776.776,0,0,0,.082-.273,1.974,1.974,0,0,0,.068-.273,1.745,1.745,0,0,0,.014-.244.984.984,0,0,0-.191-.547m9.787,4.238c-.1,0-.26.106-.478.319l-.355.395-.273.3a2.155,2.155,0,0,0-.246.274c-.123.121-.246.258-.382.395-.137.152-.274.289-.411.44-.137.137-.273.273-.4.41-.137.122-.246.228-.355.334-.219.182-.438.365-.67.547a3.788,3.788,0,0,1-.739.471,3.134,3.134,0,0,1-1.5.425c-.848,0-1.285-.44-1.326-1.336.137-.122.273-.243.424-.38l.41-.365c.137-.121.26-.228.369-.334.123-.122.219-.213.3-.3.26-.258.478-.5.683-.73a6.569,6.569,0,0,0,.492-.668,3.732,3.732,0,0,0,.3-.683,2.876,2.876,0,0,0,.109-.79,1.883,1.883,0,0,0-.081-.577,2.643,2.643,0,0,0-.274-.5.744.744,0,0,0-.15-.152,1.2,1.2,0,0,0-.342-.2.812.812,0,0,0-.15-.03,1.761,1.761,0,0,0-.766.213,3.061,3.061,0,0,0-.779.638,6.025,6.025,0,0,0-.792,1.139,6.861,6.861,0,0,0-.506,1.2,7.556,7.556,0,0,0-.26,1.17,10.666,10.666,0,0,0-.068,1.109,3.26,3.26,0,0,0,.561,2.02,2.048,2.048,0,0,0,1.709.729h.055a2.5,2.5,0,0,0,1.039-.243,5.816,5.816,0,0,0,1.107-.623,11.38,11.38,0,0,0,1.107-.9c.356-.349.7-.7,1.026-1.063.328-.38.615-.744.875-1.109a9.037,9.037,0,0,0,.67-1.018,1.1,1.1,0,0,0,.15-.395c0-.091-.028-.137-.082-.137m-5.141-.5a3.307,3.307,0,0,1-.205.456c-.1.152-.191.289-.287.425s-.219.258-.328.38c-.15.167-.329.349-.52.547s-.424.425-.711.683a7.9,7.9,0,0,1,.4-1.732,5.2,5.2,0,0,1,.7-1.321,1.181,1.181,0,0,1,.382-.364.511.511,0,0,1,.287-.106.322.322,0,0,1,.26.167.731.731,0,0,1,.11.395,1.5,1.5,0,0,1-.082.471m10.5-.076a.7.7,0,0,0-.055-.213.832.832,0,0,0-.15-.258.819.819,0,0,0-.246-.2.838.838,0,0,0-.356-.106,1.822,1.822,0,0,0-.725.152,3.5,3.5,0,0,0-.738.395,4.972,4.972,0,0,0-.725.562c-.246.228-.478.456-.7.7a7.579,7.579,0,0,0-.629.729c-.205.244-.383.487-.547.714v-.213c0-.121,0-.258.014-.41s.013-.3.027-.456c.014-.137.028-.273.041-.38s.013-.182.013-.228c0-.03.014-.076.028-.167.014-.076.041-.167.055-.258l.082-.319c.028-.106.055-.213.082-.3.028-.106.055-.182.068-.258a1.39,1.39,0,0,0,.028-.152.955.955,0,0,0-.028-.152.381.381,0,0,0-.068-.152.343.343,0,0,0-.15-.137.475.475,0,0,0-.219-.061.523.523,0,0,0-.26.076,1.429,1.429,0,0,0-.233.182,1.485,1.485,0,0,0-.164.243.9.9,0,0,0-.1.2,2.292,2.292,0,0,0-.041.258c-.013.106-.013.228-.027.349a2.733,2.733,0,0,0-.028.349,2.459,2.459,0,0,0-.027.258,4.643,4.643,0,0,0-.055.486c-.013.182-.027.349-.041.516-.014.183-.014.335-.028.471,0,.152-.013.258-.013.349,0,.03,0,.121-.014.273,0,.167-.014.334-.014.516-.014.2-.014.38-.028.562v.425c0,.3.014.608.028.866a3.373,3.373,0,0,0,.1.714,1.366,1.366,0,0,0,.164.456c.082.121.164.182.26.182a.5.5,0,0,0,.205-.046.851.851,0,0,0,.191-.121,1.566,1.566,0,0,0,.151-.137,1.606,1.606,0,0,0,.068-.152c.014-.061.014-.122.027-.2v-.228c0-.137-.013-.273-.027-.425l-.041-.41c-.013-.137-.027-.273-.027-.38a1.05,1.05,0,0,1,.027-.3,2.626,2.626,0,0,1,.15-.456,3.851,3.851,0,0,1,.246-.471,4.511,4.511,0,0,1,.3-.425c.1-.152.192-.273.274-.38a4.37,4.37,0,0,1,.615-.623,5.472,5.472,0,0,1,.738-.562,5.125,5.125,0,0,1,.739-.41,1.653,1.653,0,0,1,.629-.167c.1.015.177.03.26.046a.762.762,0,0,0,.233.046.621.621,0,0,0,.219-.046,1.459,1.459,0,0,0,.205-.121.777.777,0,0,0,.15-.243,1.064,1.064,0,0,0,.082-.349m10.758-.137a.717.717,0,0,0-.014-.076.081.081,0,0,0-.028-.061.069.069,0,0,0-.054-.03,1.7,1.7,0,0,0-.219.03c-.1.03-.191.046-.315.076-.109.015-.232.046-.369.061a3.724,3.724,0,0,1-.424.03,3.218,3.218,0,0,1-.561-.03c-.151-.015-.3-.03-.424-.046l-.369-.046a1.305,1.305,0,0,0-.342-.03.7.7,0,0,0-.383.106,1.575,1.575,0,0,0-.328.289,2.8,2.8,0,0,0-.273.319c-.068.121-.137.213-.178.289a4.726,4.726,0,0,0-.41.7c-.137.289-.287.578-.438.9s-.287.638-.437.957c-.151.334-.287.638-.424.926a6.989,6.989,0,0,1-.411.759,2.609,2.609,0,0,1-.342.5h-.15a10.8,10.8,0,0,1-.424-1.579c-.109-.547-.205-1.063-.287-1.564-.081-.486-.164-.957-.26-1.4a5.534,5.534,0,0,0-.342-1.124c-.014-.03-.041-.046-.068-.076a1.214,1.214,0,0,0-.137-.076.472.472,0,0,0-.123-.061.57.57,0,0,0-.11-.03.479.479,0,0,0-.233.061.673.673,0,0,0-.246.137,1.235,1.235,0,0,0-.191.2.338.338,0,0,0-.068.2v.015a8.639,8.639,0,0,1,.3.926c.1.349.192.73.287,1.125s.192.79.287,1.2.192.8.287,1.2.191.759.3,1.109a7.729,7.729,0,0,0,.342.9.581.581,0,0,0,.191.258.83.83,0,0,0,.26.121.911.911,0,0,0,.287,0,1.384,1.384,0,0,0,.26-.106,1.189,1.189,0,0,0,.314-.38c.137-.2.274-.44.438-.729s.342-.608.534-.957c.177-.365.369-.714.561-1.078s.382-.714.574-1.063c.177-.334.355-.638.519-.9a4.231,4.231,0,0,1,.451-.638c.137-.167.246-.243.328-.243h.205c.11,0,.233-.015.383-.015.151-.015.314-.03.492-.061.164-.015.342-.046.519-.076a4.513,4.513,0,0,0,.479-.137,1.723,1.723,0,0,0,.4-.2.34.34,0,0,1,.1-.076,1.408,1.408,0,0,0,.123-.152,1.584,1.584,0,0,0,.123-.167.258.258,0,0,0,.041-.121Zm1.46-4.891a1.247,1.247,0,0,0-.588-.121.68.68,0,0,0-.3.152,1.927,1.927,0,0,0-.492.532,1.33,1.33,0,0,0-.205.7c0,.137.11.228.329.289a2.118,2.118,0,0,0,.587.091.706.706,0,0,0,.643-.349,1.458,1.458,0,0,0,.233-.82.486.486,0,0,0-.205-.471m4.512,6.258c-.028-.121-.068-.167-.137-.167-.014-.015-.028,0-.041.015l-.041.046a.17.17,0,0,0-.028.076.08.08,0,0,0-.027.046c-.124.167-.246.334-.411.532s-.328.411-.519.623c-.205.228-.4.44-.6.653s-.424.41-.643.623a7.1,7.1,0,0,1-.656.562c-.219.167-.438.319-.656.471a2.365,2.365,0,0,1-1.149.395c-.328,0-.547-.258-.67-.775a6.528,6.528,0,0,1-.191-1.519c0-.228.013-.5.041-.8s.068-.654.123-1.049c.041-.213.068-.425.1-.638a4.355,4.355,0,0,0,.041-.562c0-.258-.055-.38-.177-.38a.968.968,0,0,0-.643.273,1.215,1.215,0,0,0-.4.608c-.028.121-.055.273-.082.471s-.055.425-.082.683q-.082.8-.082,1.185a9.329,9.329,0,0,0,.164,1.762,3.488,3.488,0,0,0,.6,1.458,1.471,1.471,0,0,0,1.258.607,2.741,2.741,0,0,0,1.669-.775c.314-.258.615-.516.888-.79a11.407,11.407,0,0,0,.793-.866c.219-.258.424-.516.629-.775s.369-.486.52-.714a7.031,7.031,0,0,0,.355-.607,1.13,1.13,0,0,0,.123-.426.681.681,0,0,0-.068-.243m6.055,1.717c-.028-.091-.055-.137-.11-.137-.013,0-.041.015-.1.061a.478.478,0,0,0-.124.091c-.177.152-.382.319-.615.486s-.492.334-.766.5a10.006,10.006,0,0,1-.875.486c-.3.152-.615.289-.916.41a8.008,8.008,0,0,1-.929.288,3.714,3.714,0,0,1-.889.106,1.142,1.142,0,0,1-.382-.076,1.294,1.294,0,0,1-.342-.243,1.624,1.624,0,0,1-.246-.364,1.474,1.474,0,0,1-.1-.5,4.427,4.427,0,0,1,.11-.942,5.02,5.02,0,0,1,.273-.881,6.48,6.48,0,0,1,.369-.775,5,5,0,0,1,.424-.592,6.272,6.272,0,0,1,.437-.471,1.777,1.777,0,0,1,.342-.289.7.7,0,0,1,.3-.152,1.087,1.087,0,0,1,.329-.046.461.461,0,0,1,.164.03.383.383,0,0,1,.11.106.594.594,0,0,1,.055.137.413.413,0,0,1,.014.121,1.058,1.058,0,0,1-.068.319c-.055.121-.11.243-.164.38l-.164.365a.819.819,0,0,0-.068.273c0,.076.014.121.055.137a.215.215,0,0,0,.137.046.582.582,0,0,0,.355-.168,1.818,1.818,0,0,0,.369-.38,3.829,3.829,0,0,0,.26-.456,1.05,1.05,0,0,0,.109-.38,1.537,1.537,0,0,0-.1-.547,2.874,2.874,0,0,0-.246-.516,1.368,1.368,0,0,0-.314-.38.464.464,0,0,0-.315-.152,2.094,2.094,0,0,0-.739.167,3.534,3.534,0,0,0-.861.562,4.436,4.436,0,0,0-.793.85,6.31,6.31,0,0,0-.615.972,7.044,7.044,0,0,0-.424.942,3.742,3.742,0,0,0-.205.683c-.055.273-.11.562-.137.835s-.041.562-.041.85a.637.637,0,0,0,.055.258,3.267,3.267,0,0,0,.15.3l.205.273a.824.824,0,0,0,.205.2,2.067,2.067,0,0,0,.4.273,3.281,3.281,0,0,0,.369.167c.123.03.232.061.328.076a1.434,1.434,0,0,0,.219.03,4.647,4.647,0,0,0,1.477-.258,10.137,10.137,0,0,0,1.435-.623,13.537,13.537,0,0,0,1.327-.835c.41-.3.792-.592,1.121-.866.014,0,.027-.03.041-.061.028-.046.041-.091.068-.137a1.5,1.5,0,0,0,.055-.152.461.461,0,0,0,.014-.137.96.96,0,0,0-.041-.273m7.832-1.9c-.1,0-.246.106-.465.319l-.369.395c-.3.335-.6.654-.916.957a11.546,11.546,0,0,1-1.025.926c-.205.152-.424.319-.657.471a7.106,7.106,0,0,1-.725.425,4.683,4.683,0,0,1-.766.289,2.6,2.6,0,0,1-.766.106,1.345,1.345,0,0,1-1.463-1.473,8.244,8.244,0,0,0,.848-.668c.233-.213.451-.41.643-.592a10.952,10.952,0,0,0,.766-.79,3.818,3.818,0,0,0,.52-.714,2.541,2.541,0,0,0,.286-.668,2.3,2.3,0,0,0,.068-.683,1.737,1.737,0,0,0-.123-.547,2.529,2.529,0,0,0-.3-.486.377.377,0,0,0-.164-.137.9.9,0,0,0-.205-.106c-.068-.015-.137-.03-.192-.046a.664.664,0,0,0-.15-.015,2.049,2.049,0,0,0-.438.091,2.193,2.193,0,0,0-.424.2,3.757,3.757,0,0,0-.383.289,2.552,2.552,0,0,0-.328.349,6.478,6.478,0,0,0-1.107,2.111,7.858,7.858,0,0,0-.329,2.264,3.187,3.187,0,0,0,.588,2.081,2.1,2.1,0,0,0,1.668.683,3.1,3.1,0,0,0,1.026-.152,7.234,7.234,0,0,0,1.067-.486,9.133,9.133,0,0,0,1.053-.759c.342-.289.683-.592,1.011-.926a12.968,12.968,0,0,0,.916-1.063,13.226,13.226,0,0,0,.766-1.109.878.878,0,0,0,.151-.395c0-.091-.027-.137-.082-.137m-5.086-.881a2.148,2.148,0,0,1-.219.425,4.2,4.2,0,0,1-.3.395c-.109.121-.219.243-.328.349-.178.182-.356.349-.547.517-.205.152-.41.334-.642.532.013-.106.041-.243.055-.38s.055-.274.1-.411a3.752,3.752,0,0,1,.11-.425,2.164,2.164,0,0,1,.123-.364,5.214,5.214,0,0,1,.67-1.2,1.034,1.034,0,0,1,.71-.486.168.168,0,0,1,.137.061.3.3,0,0,1,.109.122.808.808,0,0,1,.068.2.981.981,0,0,1,.028.213,1.323,1.323,0,0,1-.068.456m7.9,4.04a2.18,2.18,0,0,0-.219-.44,3.883,3.883,0,0,0-.3-.41c-.109-.121-.232-.258-.355-.38-.137-.137-.273-.258-.41-.395-.123-.121-.26-.243-.4-.38a4.789,4.789,0,0,1-.369-.4,3.7,3.7,0,0,1-.342-.456q.2-.251.451-.5c.164-.152.342-.349.561-.577a2.486,2.486,0,0,0,.356-.5,1.113,1.113,0,0,0,.15-.486q0-.592-.451-.592a.75.75,0,0,0-.356.122,1.628,1.628,0,0,0-.369.3,2.684,2.684,0,0,0-.382.425,5.467,5.467,0,0,0-.355.5,2.034,2.034,0,0,0-.192.349c-.055.122-.109.243-.164.38s-.082.273-.11.41a2.086,2.086,0,0,0-.041.395,1.373,1.373,0,0,0,.164.669,2.369,2.369,0,0,0,.424.577,4.839,4.839,0,0,0,.547.516c.191.167.369.319.547.486a3.372,3.372,0,0,1,.424.486.981.981,0,0,1,.164.547,1.618,1.618,0,0,1-.11.516,1.4,1.4,0,0,1-.382.532,1,1,0,0,1-.192.152,2.138,2.138,0,0,1-.219.091,1.45,1.45,0,0,1-.177.076.569.569,0,0,1-.137.015h-.11c-.041,0-.081.015-.123.015a.24.24,0,0,0-.109.015.438.438,0,0,0-.082.015.868.868,0,0,0-.26.243.772.772,0,0,0-.1.426.738.738,0,0,0,.109.456.5.5,0,0,0,.438.167,1.371,1.371,0,0,0,.52-.106,3.527,3.527,0,0,0,.574-.3,4.034,4.034,0,0,0,.547-.471,3.764,3.764,0,0,0,.465-.593,3.33,3.33,0,0,0,.329-.668,2.3,2.3,0,0,0,.123-.744,1.448,1.448,0,0,0-.082-.486" transform="translate(0 -37.864)" fill="#00184e"/>
    <path id="Path_2" data-name="Path 2" d="M181.77,68.824h-7.86v7.859h-2.171V68.824h-7.861V66.653h7.861v-7.86h2.171v7.86h7.86Zm-11.791,7.859h-6.1v-6.1h6.1Zm0,3.931h-7.861v7.861h-2.172V80.615h-7.86V78.443h7.86V70.583h2.172v7.859h7.861Zm-11.791-3.931h-6.1v-6.1h6.1Zm-10.032,0V68.824h-7.861V66.653h7.861v-7.86h2.171v7.86h7.861v2.171h-7.861v7.859Zm3.931-17.89h6.1v6.1h-6.1Zm10.032,10.031h-2.17V66.653h2.17Zm7.861-3.93h-6.1v-6.1h6.1ZM152.086,54.862h7.86V47h2.172v7.861h7.861v2.171h-7.861v7.861h-2.172V57.033h-7.86Zm23.583,10.032V57.033h-3.931V53.1h-7.861V45.241h-5.69V53.1h-7.861v3.931H146.4v7.861h-7.86v5.69h7.86v7.859h3.931v3.931h7.861v7.861h5.69V82.374h7.861V78.443h3.931V70.583h7.86v-5.69Z" transform="translate(-42.901 -14.01)" fill="#0064bf"/>
    <path id="Path_3" data-name="Path 3" d="M39.5,83.729a11.371,11.371,0,0,1-1.374,6.4C35.138,95.782,29.348,98,23.093,94.69s-7.684-9.343-4.554-15.261a15.664,15.664,0,0,1,4.34-5.144,10.54,10.54,0,0,0,1.852,1.7l-.03.19a7.968,7.968,0,0,0-5.143,3.794c-2.223,4.2-1.194,8.861,4.923,12.1s10.543,1.463,12.766-2.743a9.962,9.962,0,0,0,.588-6.646l.167-.05Z" transform="translate(-5.245 -23.004)" fill="#00184e"/>
    <path id="Path_4" data-name="Path 4" d="M49.092,67.183c-.808,2.057-3.722,5.148-1.132,7.35a2.689,2.689,0,0,0,3.962-.092,4.365,4.365,0,0,0,.653-4.137Zm-9.074,2.109A7.435,7.435,0,0,1,41.8,64.4c1.884-2.217,4.58-2.55,6.694-.753,1.78,1.515,3.46,3.1,5.454,4.8.784.667,1.758,1.494,2.523.594a1.237,1.237,0,0,0,.317-.566l.523.445a5.036,5.036,0,0,1-.923,1.76,2,2,0,0,1-2.826.341,6.053,6.053,0,0,1-1.348,5.1,3.893,3.893,0,0,1-5.531.589c-1.9-1.616-1.862-3.73-.487-6.022,2.3-3.813,2.207-4.09,1.281-4.878-1.591-1.352-3.581-1.851-5.151,0a4.24,4.24,0,0,0-.857,4.283l-.217.254Z" transform="translate(-12.393 -19.353)" fill="#00184e"/>
    <path id="Path_5" data-name="Path 5" d="M53.017,46.09l.113-.1c.95,1.242,1.925,2.42,2.9,3.6.315-.283,1.333-1.236,2.33-2.212a4.751,4.751,0,0,0,.414.507,4.814,4.814,0,0,0,.459.468c-.831.66-1.892,1.611-2.433,2.1.163.273,3.316,4.019,5.126,6.038,1.56,1.741,3.187,3.465,4.969,1.867a5.572,5.572,0,0,0,.871-1.073l.5.558a7.38,7.38,0,0,1-1.426,1.906c-1.873,1.677-3.753,1.4-5.376-.416-1.519-1.694-3.256-3.905-6.332-7.384-.451.4-.949.849-1.493,1.421a6.1,6.1,0,0,0-.434-.574,4.209,4.209,0,0,0-.462-.423q1.079-.84,1.553-1.266c-.564-.583-1.481-1.56-2.421-2.518Z" transform="translate(-16.064 -14.242)" fill="#00184e"/>
    <path id="Path_6" data-name="Path 6" d="M64.163,39.58c-1.61-2.374-3.916-5.67-5.237-7.291a6.8,6.8,0,0,0,1.216-.636,6.527,6.527,0,0,0,1.042-.9c1.022,1.831,3.227,5.194,4.749,7.438l1.329,1.962.05-.035a5.444,5.444,0,0,1,2.439-5.042c1.856-1.258,4.643-1.791,7.058,1.771,1,1.471,1.945,3.088,3.135,4.842.769,1.136,1.5,2.219,2.306,3.294a6.233,6.233,0,0,0-1.141.585,5.661,5.661,0,0,0-.941.827c-1.227-1.918-2.378-3.887-3.726-5.874l-1.067-1.574c-1.713-2.529-3.736-3.192-5.392-2.07-2.333,1.582-2.337,3.844-.518,6.528,1.329,1.961,3.635,5.255,4.958,6.883a6.769,6.769,0,0,0-1.217.636,6.878,6.878,0,0,0-1.042.893c-1.02-1.831-3.226-5.194-4.836-7.568Z" transform="translate(-18.248 -9.524)" fill="#00184e"/>
    <path id="Path_7" data-name="Path 7" d="M101.151,37.455c3.251-1.488,2.91-4.93,1.457-8.1s-3.833-5.682-7.084-4.194-2.91,4.93-1.458,8.1,3.833,5.683,7.085,4.2m-6.041-13.2c3.2-1.463,7.564-1.167,9.923,3.991s-.271,8.658-3.467,10.121S94,39.529,91.641,34.371s.271-8.658,3.469-10.12" transform="translate(-28.098 -7.274)" fill="#00184e"/>
    <path id="Path_8" data-name="Path 8" d="M113.852,14.224c-.874-2.731-2.157-6.542-2.966-8.477a6.72,6.72,0,0,0,1.346-.267,6.825,6.825,0,0,0,1.251-.563c.464,2.044,1.631,5.893,2.5,8.624l1.718,5.373c.875,2.731,2.158,6.542,2.966,8.476a6.832,6.832,0,0,0-1.345.268,6.761,6.761,0,0,0-1.252.564c-.463-2.044-1.63-5.892-2.5-8.624Z" transform="translate(-34.339 -1.522)" fill="#00184e"/>
    <path id="Path_9" data-name="Path 9" d="M129.123,16.621c-.429-1.821-.986-3.931-1.57-5.621a6.815,6.815,0,0,0,1.363-.16,7,7,0,0,0,1.292-.461c.231,1.77.671,3.909,1.1,5.73l.742,3.155c.428,1.82.986,3.932,1.57,5.619a6.718,6.718,0,0,0-1.363.161,6.788,6.788,0,0,0-1.292.463c-.229-1.771-.67-3.909-1.1-5.73ZM127.275,3.862a1.59,1.59,0,1,1-1.14,1.9,1.576,1.576,0,0,1,1.14-1.9" transform="translate(-39.048 -1.184)" fill="#00184e"/>
    <path id="Path_10" data-name="Path 10" d="M148.121,9.609a7.865,7.865,0,0,1,5.012.753,10.148,10.148,0,0,0-.405,2.125l-.241.03a4.616,4.616,0,0,0-4.152-1.929c-3.639.456-4.751,3.518-4.273,7.323.532,4.237,2.672,6.2,6.009,5.78a6.516,6.516,0,0,0,4.234-2.762l.162.074a13.453,13.453,0,0,0,.01,1.538,8.551,8.551,0,0,1-4.785,2.517c-3.487.438-7.578-1.248-8.274-6.784-.671-5.351,2.853-8.182,6.7-8.664" transform="translate(-43.769 -2.949)" fill="#00184e"/>
    <path id="Path_11" data-name="Path 11" d="M194.537,21.117a11.368,11.368,0,0,1-6.448,1.132c-6.361-.643-10.592-5.175-9.877-12.214S183.979-.595,190.641.08a15.659,15.659,0,0,1,6.4,2.088,10.774,10.774,0,0,0-.878,2.355l-.186.043a7.966,7.966,0,0,0-5.449-3.339c-4.732-.48-8.661,2.224-9.361,9.106s2.61,10.32,7.342,10.8a9.984,9.984,0,0,0,6.383-1.954l.106.136Z" transform="translate(-55.164 0)" fill="#00184e"/>
    <path id="Path_12" data-name="Path 12" d="M210.815,9.517c.749-2.768,1.744-6.665,2.116-8.733a6.822,6.822,0,0,0,1.274.508,7.058,7.058,0,0,0,1.359.21c-.723,1.968-1.836,5.834-2.546,8.451l-.62,2.286.06.016a5.443,5.443,0,0,1,5.413-1.439c2.164.587,4.385,2.352,3.258,6.5-.465,1.715-1.073,3.488-1.626,5.534-.361,1.324-.7,2.587-1,3.9a6.066,6.066,0,0,0-1.185-.483,5.567,5.567,0,0,0-1.242-.175c.656-2.181,1.4-4.337,2.026-6.654l.5-1.835c.8-2.948-.017-4.914-1.945-5.438-2.722-.738-4.44.734-5.286,3.864-.621,2.285-1.617,6.183-1.988,8.245a6.044,6.044,0,0,0-2.63-.714c.722-1.967,1.832-5.833,2.583-8.6Z" transform="translate(-64.027 -0.243)" fill="#00184e"/>
    <path id="Path_13" data-name="Path 13" d="M240.149,30.948c-2.2-.185-6-2.089-7.362,1.022a2.69,2.69,0,0,0,1.223,3.771,4.361,4.361,0,0,0,4.149-.561Zm-4.625-8.088a7.425,7.425,0,0,1,5.193.306c2.664,1.169,3.756,3.657,2.64,6.2-.937,2.141-1.974,4.2-3.025,6.6-.413.942-.927,2.112.155,2.587a1.217,1.217,0,0,0,.632.142l-.276.628a5.012,5.012,0,0,1-1.949-.381,2.005,2.005,0,0,1-1.138-2.609,6.044,6.044,0,0,1-5.268.17,3.9,3.9,0,0,1-2.151-5.13c1-2.282,3.039-2.851,5.627-2.192,4.31,1.11,4.548.943,5.037-.17.84-1.912.746-3.962-1.473-4.936a4.241,4.241,0,0,0-4.347.405l-.305-.134Z" transform="translate(-71.228 -6.981)" fill="#00184e"/>
    <path id="Path_14" data-name="Path 14" d="M261.722,37.106a2.286,2.286,0,0,0-1.021-1.189c-1.664-.992-3.626.052-4.87,2.14-2.776,4.658-3.624,6.077-4.253,7.371a5.355,5.355,0,0,0-.961-.755,6.132,6.132,0,0,0-1.172-.516c.886-1.25,2.13-3.338,3.919-6.337l.509-.857c.83-1.392,1.93-3.239,3.2-5.6a6.092,6.092,0,0,0,1.013.784,5.313,5.313,0,0,0,1.119.487,25.824,25.824,0,0,0-1.678,2.52l.035.057c2.138-1.339,3.962-1.557,5.158-.844a2.236,2.236,0,0,1,.739.656,8.81,8.81,0,0,0-1.475,2.06Z" transform="translate(-77.247 -9.711)" fill="#00184e"/>
    <path id="Path_15" data-name="Path 15" d="M276.559,33.673a1.59,1.59,0,1,1-2.188.364,1.575,1.575,0,0,1,2.188-.364m-8.514,9.676c1.11-1.506,2.353-3.3,3.259-4.838a6.874,6.874,0,0,0,1.007.934,7.016,7.016,0,0,0,1.19.683c-1.2,1.323-2.54,3.044-3.648,4.55l-1.921,2.61c-1.11,1.506-2.354,3.3-3.259,4.838a6.039,6.039,0,0,0-2.2-1.617c1.2-1.323,2.542-3.044,3.65-4.55Z" transform="translate(-81.283 -10.338)" fill="#00184e"/>
    <path id="Path_16" data-name="Path 16" d="M286.7,46.709l.112.1c-1.127,1.084-2.186,2.185-3.247,3.286.315.282,1.378,1.185,2.459,2.068a4.722,4.722,0,0,0-.456.469,4.945,4.945,0,0,0-.414.507c-.75-.752-1.815-1.7-2.357-2.182-.253.193-3.619,3.748-5.422,5.775-1.555,1.747-3.086,3.556-1.3,5.148a5.568,5.568,0,0,0,1.163.744l-.5.559a7.4,7.4,0,0,1-2.053-1.2c-1.879-1.672-1.81-3.572-.194-5.389,1.513-1.7,3.514-3.676,6.624-7.125-.451-.4-.949-.846-1.578-1.32a5.6,5.6,0,0,0,.52-.5,4.1,4.1,0,0,0,.371-.509c.636.652,1.115,1.118,1.43,1.4.517-.625,1.385-1.646,2.231-2.689Z" transform="translate(-84.628 -14.199)" fill="#00184e"/>
    <path id="Path_17" data-name="Path 17" d="M298,53.875a1.589,1.589,0,1,1-2.216-.056,1.575,1.575,0,0,1,2.216.056M287.81,61.768c1.373-1.27,2.934-2.8,4.116-4.134a6.044,6.044,0,0,0,1.851,2c-1.428,1.073-3.073,2.51-4.445,3.779l-2.38,2.2c-1.374,1.269-2.935,2.8-4.118,4.135a6.034,6.034,0,0,0-1.851-2c1.428-1.073,3.073-2.51,4.445-3.779Z" transform="translate(-87.014 -16.534)" fill="#00184e"/>
    <path id="Path_18" data-name="Path 18" d="M297.392,75.526c.681,1.04,1.439,2.247,2.16,3.295.758,1.1,1.619,2.235,2.368,3.262,1.82-1.258,4.111-3.537,2.322-6.13-1.687-2.443-4.916-1.577-6.849-.427m7.636-.19c2.408,3.49,1.177,6.808-1.671,8.773-.333.23-.685.435-1.036.643-1.214-1.813-2.384-3.619-3.607-5.39-.756-1.1-1.549-2.134-2.331-3.213a8.49,8.49,0,0,0-.734.47c-2.669,1.841-3.68,4.821-1.768,7.589a6.526,6.526,0,0,0,4.4,2.483l.009.177-1.361.718a8.535,8.535,0,0,1-4.438-3.084,7.1,7.1,0,0,1,1.845-10.218c4.155-2.868,8.157-2.612,10.689,1.053" transform="translate(-90.143 -22.4)" fill="#00184e"/>
    <path id="Path_19" data-name="Path 19" d="M302.742,96.469a4.127,4.127,0,0,0-.524,4.007,2.756,2.756,0,0,0,3.773,1.5c3.514-1.613-1.539-7.164,3.249-9.361,2.463-1.132,5.035-.314,6.375,2.607a9.16,9.16,0,0,1,.61,3.42,8.187,8.187,0,0,0-2.315.264l-.152-.331a2.792,2.792,0,0,0,.645-3.229,2.5,2.5,0,0,0-3.456-1.248c-3.681,1.689,1.57,7.149-3.218,9.347a5.209,5.209,0,0,1-6.751-2.9,7.343,7.343,0,0,1-.694-3.982,7.117,7.117,0,0,0,2.307-.427Z" transform="translate(-92.978 -28.53)" fill="#00184e"/>
  </g>
</svg>
