<?xml version="1.0" encoding="utf-8"?>
<!-- Generator: Adobe Illustrator 28.0.0, SVG Export Plug-In . SVG Version: 6.00 Build 0)  -->
<svg version="1.1" id="Layer_1" xmlns="http://www.w3.org/2000/svg" xmlns:xlink="http://www.w3.org/1999/xlink" x="0px" y="0px"
	 viewBox="0 0 311.988 155.849" enable-background="new 0 0 311.988 155.849" xml:space="preserve">
<g>
	<g>
		
			<ellipse fill="#FFCB23" stroke="#2E3068" stroke-width="0.25" stroke-miterlimit="3.864" cx="158.545" cy="37.123" rx="81.038" ry="36.998"/>
		<g>
			<defs>
				<rect id="SVGID_1_" x="82.925" y="3.104" width="149.754" height="68.557"/>
			</defs>
			<clipPath id="SVGID_00000006699611622550131110000014394749182915885245_">
				<use xlink:href="#SVGID_1_"  overflow="visible"/>
			</clipPath>
			<path clip-path="url(#SVGID_00000006699611622550131110000014394749182915885245_)" fill="#2E3169" d="M232.679,37.382
				c0,18.931-33.524,34.278-74.877,34.278S82.925,56.313,82.925,37.382c0-18.932,33.524-34.278,74.877-34.278
				S232.679,18.45,232.679,37.382"/>
			<defs>
				<filter id="Adobe_OpacityMaskFilter" filterUnits="userSpaceOnUse" x="95.547" y="7.774" width="93.036" height="42.592">
					<feFlood  style="flood-color:white;flood-opacity:1" result="back"/>
					<feBlend  in="SourceGraphic" in2="back" mode="normal"/>
				</filter>
			</defs>
			
				<mask maskUnits="userSpaceOnUse" x="95.547" y="7.774" width="93.036" height="42.592" id="SVGID_00000090290474609995237780000001318792280324380560_">
				<g filter="url(#Adobe_OpacityMaskFilter)">
					
						<linearGradient id="SVGID_00000152948546432312914860000007742013226725518774_" gradientUnits="userSpaceOnUse" x1="-151.1622" y1="500.7949" x2="-150.1622" y2="500.7949" gradientTransform="matrix(61.1333 70.3259 70.3259 -61.1333 -25861.4277 41235.5625)">
						<stop  offset="0" style="stop-color:#FFFFFF"/>
						<stop  offset="0.0043" style="stop-color:#FFFFFF"/>
						<stop  offset="0.6471" style="stop-color:#000000"/>
						<stop  offset="0.9501" style="stop-color:#000000"/>
						<stop  offset="1" style="stop-color:#000000"/>
					</linearGradient>
					
						<polygon clip-path="url(#SVGID_00000006699611622550131110000014394749182915885245_)" fill="url(#SVGID_00000152948546432312914860000007742013226725518774_)" points="
						168.223,-71.044 266.624,42.153 147.382,145.809 48.981,32.612 					"/>
				</g>
			</mask>
			
				<g clip-path="url(#SVGID_00000006699611622550131110000014394749182915885245_)" mask="url(#SVGID_00000090290474609995237780000001318792280324380560_)">
				<g>
					<path fill="#FFFFFF" d="M188.583,29.07c0,11.761-20.827,21.296-46.518,21.296S95.547,40.831,95.547,29.07
						s20.827-21.296,46.518-21.296S188.583,17.309,188.583,29.07"/>
				</g>
			</g>
		</g>
		<g>
			<path fill="#FFC628" d="M153.999,30.096c0-0.029,0-0.049,0-0.049V30.096v0.05C153.999,30.146,153.999,30.122,153.999,30.096"/>
			<path fill="#FFC628" d="M188.11,30.096v-0.049C188.11,30.047,188.11,30.067,188.11,30.096c0,0.026,0,0.05,0,0.05V30.096"/>
		</g>
		<polygon fill="#FFC628" points="222.131,30.098 222.131,30.144 222.131,30.098 222.131,30.045 		"/>
		<g>
			<g>
				<g>
					<path fill="#FFCB23" d="M158.545,28.811h-0.398c0,0-2.993,10.047-5.221,14.184c-5.76,10.699-10.098,14.43-10.098,14.43
						l7.874,0.004c0,0,0.552-1.025,4.342-9.509c2.86-6.403,3.497-10.797,3.497-10.797L158.545,28.811z"/>
					<path fill="#FFCB23" d="M158.545,28.811h0.398c0,0,2.993,10.047,5.221,14.184c5.76,10.699,10.098,14.43,10.098,14.43
						l-7.874,0.004c0,0-0.552-1.025-4.342-9.509c-2.86-6.403-3.497-10.797-3.497-10.797L158.545,28.811z"/>
				</g>
				<polygon fill="#FFCB23" points="162.322,22.655 154.768,22.655 156.105,17.286 160.985,17.286 				"/>
				<g>
					<path fill="#FFCB23" d="M158.545,27.875c0,0-5.667,0.493-11.971-1.231c-6.304-1.724-10.146-4.58-10.146-4.58l3.029-4.349
						c0,0,3.468,4.047,8.03,5.113c6.918,1.616,11.059,1.403,11.059,1.403V27.875z"/>
					<path fill="#FFCB23" d="M158.545,27.875c0,0,5.667,0.493,11.971-1.231c6.304-1.724,10.146-4.58,10.146-4.58l-3.029-4.349
						c0,0-3.468,4.047-8.03,5.113c-6.918,1.616-11.059,1.403-11.059,1.403V27.875z"/>
				</g>
			</g>
			<g>
				<g>
					<path fill="#FFCB23" d="M123.914,28.811h-0.398c0,0-2.993,10.047-5.221,14.184c-5.76,10.699-10.098,14.43-10.098,14.43
						l7.874,0.004c0,0,0.552-1.025,4.342-9.509c2.86-6.403,3.497-10.797,3.497-10.797L123.914,28.811z"/>
					<path fill="#FFCB23" d="M123.914,28.811h0.398c0,0,2.993,10.047,5.221,14.184c5.76,10.699,10.098,14.43,10.098,14.43
						l-7.874,0.004c0,0-0.552-1.025-4.342-9.509c-2.86-6.403-3.497-10.797-3.497-10.797L123.914,28.811z"/>
				</g>
				<polygon fill="#FFCB23" points="127.691,22.655 120.137,22.655 121.474,17.286 126.354,17.286 				"/>
				<g>
					<path fill="#FFCB23" d="M123.914,27.875c0,0-5.667,0.493-11.971-1.231c-6.304-1.724-10.146-4.58-10.146-4.58l3.029-4.349
						c0,0,3.468,4.047,8.03,5.113c6.918,1.616,11.059,1.403,11.059,1.403V27.875z"/>
					<path fill="#FFCB23" d="M123.914,27.875c0,0,5.667,0.493,11.971-1.231c6.304-1.724,10.146-4.58,10.146-4.58l-3.029-4.349
						c0,0-3.468,4.047-8.03,5.113c-6.918,1.616-11.059,1.403-11.059,1.403V27.875z"/>
				</g>
			</g>
			<g>
				<g>
					<path fill="#FFCB23" d="M193.218,28.811h-0.398c0,0-2.993,10.047-5.221,14.184c-5.76,10.699-10.098,14.43-10.098,14.43
						l7.874,0.004c0,0,0.552-1.025,4.342-9.509c2.86-6.403,3.497-10.797,3.497-10.797L193.218,28.811z"/>
					<path fill="#FFCB23" d="M193.218,28.811h0.398c0,0,2.993,10.047,5.221,14.184c5.76,10.699,10.098,14.43,10.098,14.43
						l-7.874,0.004c0,0-0.552-1.025-4.342-9.509c-2.86-6.403-3.497-10.797-3.497-10.797L193.218,28.811z"/>
				</g>
				<polygon fill="#FFCB23" points="196.994,22.655 189.441,22.655 190.777,17.286 195.658,17.286 				"/>
				<g>
					<path fill="#FFCB23" d="M193.218,27.875c0,0-5.667,0.493-11.971-1.231c-6.304-1.724-10.146-4.58-10.146-4.58l3.029-4.349
						c0,0,3.468,4.047,8.03,5.113c6.918,1.616,11.059,1.403,11.059,1.403V27.875z"/>
					<path fill="#FFCB23" d="M193.218,27.875c0,0,5.667,0.493,11.971-1.231c6.304-1.724,10.146-4.58,10.146-4.58l-3.029-4.349
						c0,0-3.468,4.047-8.03,5.113c-6.918,1.616-11.059,1.403-11.059,1.403V27.875z"/>
				</g>
			</g>
		</g>
	</g>
	<g>
		<g>
			<path fill="#221F20" d="M48.133,133.199c0,3.88-0.794,6.348-3.35,8.199c-3.613,2.644-8.462,4.231-13.136,4.231
				c-13.754,0-24.509-12.872-24.509-31.648c0-16.043,9.877-26.889,23.188-26.889c7.669,0,15.338,3.792,19.748,9.61
				c3.083,4.056,3.083,7.405,4.758,7.405c0.794,0,0.969-0.442,0.969-1.411c0-0.439,0-1.145-0.088-1.85l-0.881-9.168
				c-0.088-1.145-0.351-1.763-0.881-1.763c-0.618,0-1.321,0.794-2.026,0.794c-1.148,0-2.735-1.323-5.467-2.556
				c-5.025-2.293-10.225-3.441-15.78-3.441c-9.08,0-15.955,2.647-21.51,8.465C3.174,99.522,0,107.809,0,117.595
				c0,18.866,11.637,31.033,29.355,31.033c10.14,0,16.398-3.88,22.304-7.23c2.471-1.409,3.88-1.233,3.88-3.35
				c0-0.794-0.088-1.411-0.088-1.854v-13.663c0-2.205,0.442-3.613,1.763-4.583c1.145-0.881,2.381-0.618,2.381-2.117
				c0-0.618-0.266-0.881-0.881-0.881c-0.53,0-2.732,0.442-6.436,0.442c-4.583,0-7.669-0.53-9.08-0.53
				c-1.233,0-1.763,0.176-1.763,1.233c0,1.499,2.029,1.057,3.704,1.766c2.29,1.057,2.996,2.378,2.996,4.846V133.199z"/>
			<path fill="#221F20" d="M78.028,135.894c0,3.528,0,5.73-2.293,7.757c-2.205,1.941-4.849,1.587-4.849,3.262
				c0,0.706,0.53,1.148,1.411,1.148c0.615,0,3.789-0.53,9.786-0.53c4.758,0,8.023,0.53,9.874,0.53c1.233,0,1.675-0.263,1.675-1.233
				c0-1.854-3.086-0.706-5.73-2.559c-2.732-1.851-2.998-4.319-2.998-8.287v-14.281c0-2.732,1.145-3.086,4.231-3.086
				c4.41,0,6.436,0.176,8.641,3.616l9.168,14.544c4.495,7.142,7.845,11.285,14.899,11.285c3.35,0,4.849-0.179,4.849-1.587
				c0-1.236-1.851-0.706-3.968-1.763c-3.616-1.851-6.436-6.524-10.667-12.96l-10.137-15.429c7.139-3.162,11.019-8.787,11.019-15.291
				c0-9.048-6.7-14.857-18.778-14.857c-6.082,0-10.577,0.442-13.311,0.442c-4.231,0-7.139-0.442-8.55-0.442
				c-1.236,0-1.678,0.176-1.678,1.233c0,1.678,2.559,0.706,4.852,2.468c2.381,1.854,2.556,4.146,2.556,7.935V135.894z
				 M84.904,92.334c0-2.723,1.233-3.162,4.761-3.162c10.667,0,16.661,5.534,16.661,14.234c0,8.872-4.937,12.298-15.692,12.298
				h-0.881c-3.438,0-4.849-0.085-4.849-2.017V92.334z"/>
			<path fill="#221F20" d="M145.477,137.877c-1.499,3.083-2.823,5.376-4.586,6.7c-1.499,1.145-3.528,1.057-3.528,2.293
				c0,0.615,0.533,1.142,1.06,1.142c0.881,0,2.556-0.527,4.937-0.527c4.937,0,8.375,0.527,10.049,0.527
				c0.972,0,1.411-0.264,1.411-1.054c0-1.499-1.675-0.969-3.174-1.587c-2.205-0.881-3.262-2.293-3.262-3.88
				c0-1.324,0.53-2.732,1.324-4.498l4.319-9.344c0.969-2.117,1.587-3.262,3.968-3.262h19.832c2.296,0,3.001,0.706,3.792,2.735
				l4.583,11.9c0.621,1.499,0.884,2.556,0.884,3.35c0,1.587-0.969,2.381-2.911,3.086c-1.233,0.439-2.026,0.53-2.026,1.587
				c0,0.439,0.439,1.057,0.969,1.057c0.794,0,3.438-0.618,8.199-0.618c5.467,0,8.905,0.527,10.137,0.527
				c0.796,0,1.148-0.264,1.148-1.054c0-1.499-2.029-0.969-4.056-1.854c-2.82-1.145-4.41-3.968-6.085-8.287l-20.008-50.956
				c-0.354-0.879-0.533-1.409-1.148-1.409c-0.709,0-0.969,0.354-1.411,1.233L145.477,137.877z M159.846,120.861
				c-1.499,0-2.205-0.351-2.205-1.148c0-0.439,0.179-0.969,0.53-1.584l9.519-20.365c0.354-0.706,0.796-0.969,1.148-0.969
				s0.794,0.351,1.057,1.057l8.023,20.629c0.264,0.706,0.439,1.145,0.439,1.499c0,0.53-0.615,0.881-1.675,0.881H159.846z"/>
			<path fill="#221F20" d="M222.257,135.949c0,3.528-0.088,5.733-2.381,7.757c-2.205,1.941-4.758,1.59-4.758,3.262
				c0,0.709,0.439,1.148,1.321,1.148c0.706,0,3.88-0.53,9.256-0.53c3.174,0,6.436,0.53,10.049,0.53c1.324,0,1.851-0.176,1.851-1.233
				c0-1.766-2.729-0.881-5.376-2.293c-3.086-1.675-3.174-3.88-3.174-8.55V92.481c0-2.55,1.236-3.165,4.231-3.165
				c11.285,0,18.515,6.591,18.515,16.081c0,7.909-5.203,12.304-14.986,12.304c-2.556,0-4.146-0.615-4.849-0.615
				c-0.53,0-0.972,0.439-0.972,0.966c0,1.06,2.911,2.117,8.29,2.117c10.843,0,19.039-7.654,19.039-16.881
				c0-10.547-7.757-17.059-21.332-17.059c-4.407,0-8.375,0.442-11.991,0.442c-4.231,0-6.966-0.442-8.287-0.442
				c-1.145,0-1.675,0.264-1.675,1.233c0,1.678,2.559,0.706,4.761,2.468c2.293,1.854,2.468,4.234,2.468,7.938V135.949z"/>
			<path fill="#221F20" d="M271.64,135.969c0,3.438-0.091,5.73-2.026,7.757c-1.854,1.941-4.146,1.499-4.146,3.35
				c0,0.53,0.53,1.057,0.972,1.057c0.791,0,5.818-0.615,15.601-0.615c7.405,0,12.609,0.53,15.519,0.53
				c4.14,0,6.697-1.057,9.517-4.585c1.854-2.293,2.823-5.467,2.823-6.787c0-0.969-0.351-1.499-0.791-1.499
				c-1.236,0-1.854,2.82-5.203,4.937c-3.613,2.293-10.316,4.231-18.16,4.231c-5.643,0-7.23-1.057-7.23-5.555v-17.982
				c0-2.381,0.351-2.911,2.644-2.911h8.287c4.673,0,7.408,0.618,8.465,3.353c0.794,2.114,0.176,4.319,1.851,4.319
				c0.618,0,1.233-0.706,1.233-1.854c0-0.615-0.439-2.644-0.439-6.082c0-4.234,0.354-6.966,0.354-8.111
				c0-1.323-0.442-1.938-1.06-1.938c-1.411,0-1.06,2.293-2.29,4.056c-1.678,2.468-4.41,2.82-8.817,2.82h-7.23
				c-2.911,0-2.998-0.53-2.998-3.35v-18.16c0-3.174,1.763-3.526,6.79-3.526h6.17c7.493,0,10.755,1.145,10.755,5.818
				c0,0.264-0.088,0.618-0.088,0.969c0,1.057,0.439,1.587,1.145,1.587c0.794,0,0.969-0.618,1.06-1.851l0.615-7.23
				c0-0.442,0.088-0.794,0.088-1.148c0-1.496-0.439-1.763-1.763-1.763c-1.408,0-8.462,0.794-21.247,0.794
				c-10.137,0-15.426-0.527-16.219-0.527c-1.233,0-1.675,0.264-1.675,1.321c0,1.675,2.644,0.706,4.934,2.468
				c2.384,1.851,2.559,4.143,2.559,7.935V135.969z"/>
		</g>
		<path fill="none" stroke="#FFCB23" stroke-width="0.454" stroke-miterlimit="3.864" d="M0.369,155.309l311.618,0.313
			 M0.369,74.659l311.618,0.313"/>
		<g>
			<path fill="#FFC628" d="M156.91,64.251c0-0.029,0-0.05,0-0.05V64.251v0.05C156.91,64.301,156.91,64.278,156.91,64.251"/>
			<path fill="#FFC628" d="M191.183,64.251v-0.05C191.183,64.202,191.183,64.222,191.183,64.251c0,0.026,0,0.05,0,0.05V64.251"/>
		</g>
		<polygon fill="#FFC628" points="225.367,64.253 225.367,64.3 225.367,64.253 225.367,64.201 		"/>
	</g>
</g>
<g>
</g>
<g>
</g>
<g>
</g>
<g>
</g>
<g>
</g>
<g>
</g>
</svg>
